<?xml version="1.0" standalone="no"?>
<!DOCTYPE svg PUBLIC "-//W3C//DTD SVG 1.1//EN" "http://www.w3.org/Graphics/SVG/1.1/DTD/svg11.dtd" >
<svg xmlns="http://www.w3.org/2000/svg">
<defs>
  <font id="MGI" horiz-adv-x="264">
    <font-face font-family="MGI"
      units-per-em="256" ascent="256"
      descent="0" />
    <missing-glyph horiz-adv-x="0" />
    <glyph glyph-name="Activity"
      unicode="&#xEA01;"
      horiz-adv-x="256" d="M160 40L159.6 40.008A8 8 0 0 0 152.528 45.152L95.352 195.232L63.288 124.6880000000001A8 8 0 0 0 56 120H24A8 8 0 0 0 24 136H50.84L88.72 219.312A8 8 0 0 0 103.48 218.848L161 67.872L192.84 131.576A8 8 0 0 0 200 136H232A8 8 0 0 0 232 120H204.944L167.16 44.424A8 8 0 0 0 160 40z" />
    <glyph glyph-name="Airplane"
      unicode="&#xEA02;"
      horiz-adv-x="256" d="M240.224 120V88A8 8 0 0 0 230.656 80.16L160.224 94.24V67.28L173.696 53.616A8 8 0 0 0 176 48V24A8 8 0 0 0 165.032 16.576L128 31.376L90.968 16.568A8 8 0 0 0 80 24V48A8 8 0 0 0 82.344 53.656L96 67.312V94.24L25.568 80.16A8 8 0 0 0 16 88V120A8 8 0 0 0 20.424 127.152L96 164.96L96.104 208.024A32 32 0 0 0 160.104 208.008L160.208 164.96L235.792 127.16A8 8 0 0 0 240.216 120.008z" />
    <glyph glyph-name="AirplaneInFlight"
      unicode="&#xEA03;"
      horiz-adv-x="256" d="M224 40A8 8 0 0 0 216 32H72A8 8 0 0 0 72 48H216A8 8 0 0 0 224 40zM208 156H153.76L110.952 202.704A4 4 0 0 1 108 204H91.096A12 12 0 0 1 79.712 188.208L90.448 156H65.872L47.072 178.56A4 4 0 0 1 44 180H26.752A12 12 0 0 1 15.256 164.552L29.328 117.656A35.776 35.776 0 0 1 63.808 92H240A4 4 0 0 1 244 96V120A36.032 36.032 0 0 1 208 156z" />
    <glyph glyph-name="AirplaneLanding"
      unicode="&#xEA04;"
      horiz-adv-x="256" d="M248 40A8 8 0 0 0 240 32H96A8 8 0 0 0 96 48H240A8 8 0 0 0 248 40zM224 68A4 4 0 0 1 228 72V107.68A36.104 36.104 0 0 1 201.632 142.36L154.656 155.416L123.472 209.984A4 4 0 0 1 121.264 211.792L107.792 216.288A12 12 0 0 1 92 204.904V173.44L66.76 181.328L51.528 209.888A4 4 0 0 1 49.264 211.792L35.792 216.288A12 12 0 0 1 20 204.904V152.264A36.12 36.12 0 0 1 46.296 117.608L222.92 68.144A4 4 0 0 1 224 68z" />
    <glyph glyph-name="AirplaneTakeoff"
      unicode="&#xEA05;"
      horiz-adv-x="256" d="M176 40A8 8 0 0 0 168 32H24A8 8 0 1 0 24 48H168A8 8 0 0 0 176 40zM247.096 166.536L228.456 189.312A35.816 35.816 0 0 1 182.344 197.552L139.5440000000001 172.368L81.264 191.792A4.008 4.008 0 0 1 78.424 191.68L61.928 184.608A12 12 0 0 1 58.624 164.656L85.216 140.728L63.744 128.464L37.576 139.68A4 4 0 0 1 34.424 139.68L17.672 132.496A12 12 0 0 1 14.192 112.712L51.888 77.376A35.784 35.784 0 0 1 94.608 72.512L246 160.544A4 4 0 0 1 247.088 166.536z" />
    <glyph glyph-name="AirplaneTilt"
      unicode="&#xEA06;"
      horiz-adv-x="256" d="M215.016 169.76L185.208 141.776L215.408 58.736A8 8 0 0 0 213.544 50.336L189.544 26.336A8 8 0 0 0 177.28 27.488L134.696 89.824L115.888 72.496V52A8 8 0 0 0 113.544 46.344L93.544 26.344A8 8 0 0 0 80.312 29.432L67.384 67.544L29.32 80.424A8 8 0 0 0 26.232 93.656L46.232 113.656A8 8 0 0 0 51.888 116H72.576L91.328 134.76L27.448 177.344A8 8 0 0 0 26.232 189.664L50.232 213.664A8 8 0 0 0 58.624 215.52L141.68 185.312L168.28 213.456A7.952000000000001 7.952000000000001 0 0 0 169.256 214.632A32 32 0 0 0 216.272 171.288C215.912 170.728 215.488 170.216 215.008 169.768z" />
    <glyph glyph-name="Airplay"
      unicode="&#xEA07;"
      horiz-adv-x="256" d="M134.08 101.2A8.008 8.008 0 0 1 121.928 101.2L73.928 45.2A8 8 0 0 1 80 32H176A8 8 0 0 1 182.08 45.2L134.08 101.2zM208 216H48A24.024 24.024 0 0 1 24 192V80A24.024 24.024 0 0 1 48 56H62.104L109.784 111.624A24 24 0 0 0 146.224 111.624L193.896 56H208A24.031999999999996 24.031999999999996 0 0 1 232 80V192A24.024 24.024 0 0 1 208 216z" />
    <glyph glyph-name="Alarm"
      unicode="&#xEA08;"
      horiz-adv-x="256" d="M235.48 201.536L201.536 235.48A8 8 0 1 1 190.224 224.168L224.168 190.224A8 8 0 1 1 235.48 201.536zM65.776 235.48A8 8 0 0 1 54.464 235.48L20.52 201.536A8 8 0 0 1 31.832 190.224L65.776 224.168A8 8 0 0 1 65.776 235.48zM223.96 130.776L223.88 132.928L223.872 133A96 96 0 0 1 132.992 223.872H132.928C132.208 223.912 131.488 223.936 130.776 223.952L130.456 223.968A99.04000000000002 99.04000000000002 0 0 1 125.544 223.968L125.224 223.96L123.072 223.88L123 223.872A96 96 0 0 1 32.128 132.992V132.928C32.088 132.208 32.064 131.488 32.048 130.776L32.032 130.456A99.04000000000002 99.04000000000002 0 0 1 32.032 125.544L32.04 125.224L32.12 123.072L32.128 123A96 96 0 0 1 123.008 32.128H123.072C123.792 32.0880000000001 124.512 32.0640000000001 125.224 32.048L125.544 32.032A96.37599999999999 96.37599999999999 0 0 1 130.456 32.032L130.776 32.0400000000001L132.928 32.1200000000001L133 32.1280000000001A96 96 0 0 1 223.872 123.0080000000001V123.0720000000001C223.912 123.7920000000001 223.936 124.5120000000001 223.952 125.2240000000001L223.968 125.5440000000001A96.37599999999999 96.37599999999999 0 0 1 223.968 130.4560000000001L223.96 130.7760000000001zM184 120H128A8 8 0 0 0 120 128V184A8 8 0 0 0 136 184V136H184A8 8 0 0 0 184 120z" />
    <glyph glyph-name="AlignBottom"
      unicode="&#xEA09;"
      horiz-adv-x="256" d="M224 40A8 8 0 0 0 216 32H40A8 8 0 1 0 40 48H216A8 8 0 0 0 224 40zM152 64H192A16.016 16.016 0 0 1 208 80V176A16.016 16.016 0 0 1 192 192H152A16.016 16.016 0 0 1 136 176V80A16.016 16.016 0 0 1 152 64zM64 64H104A16.016 16.016 0 0 1 120 80V216A16.016 16.016 0 0 1 104 232H64A16.016 16.016 0 0 1 48 216V80A16.016 16.016 0 0 1 64 64z" />
    <glyph glyph-name="AlignCenterHorizontal"
      unicode="&#xEA0D;"
      horiz-adv-x="256" d="M224 104V64A16.016 16.016 0 0 0 208 48H136V32A8 8 0 0 0 120 32V48H48A16.016 16.016 0 0 0 32 64V104A16.016 16.016 0 0 0 48 120H120V136H72A16.016 16.016 0 0 0 56 152V192A16.016 16.016 0 0 0 72 208H120V224A8 8 0 0 0 136 224V208H184A16.016 16.016 0 0 0 200 192V152A16.016 16.016 0 0 0 184 136H136V120H208A16.016 16.016 0 0 0 224 104z" />
    <glyph glyph-name="AlignCenterVertical"
      unicode="&#xEA0A;"
      horiz-adv-x="256" d="M232 128A8 8 0 0 0 224 120H208V72A16.016 16.016 0 0 0 192 56H152A16.016 16.016 0 0 0 136 72V120H120V48A16.016 16.016 0 0 0 104 32H64A16.016 16.016 0 0 0 48 48V120H32A8 8 0 0 0 32 136H48V208A16.016 16.016 0 0 0 64 224H104A16.016 16.016 0 0 0 120 208V136H136V184A16.016 16.016 0 0 0 152 200H192A16.016 16.016 0 0 0 208 184V136H224A8.008 8.008 0 0 0 232 128z" />
    <glyph glyph-name="AlignLeft"
      unicode="&#xEA0C;"
      horiz-adv-x="256" d="M48 216V40A8 8 0 1 0 32 40V216A8 8 0 1 0 48 216zM80 136H176A16.016 16.016 0 0 1 192 152V192A16.016 16.016 0 0 1 176 208H80A16.016 16.016 0 0 1 64 192V152A16.016 16.016 0 0 1 80 136zM216 120H80A16.016 16.016 0 0 1 64 104V64A16.016 16.016 0 0 1 80 48H216A16.016 16.016 0 0 1 232 64V104A16.016 16.016 0 0 1 216 120z" />
    <glyph glyph-name="AlignRight"
      unicode="&#xEA0B;"
      horiz-adv-x="256" d="M224 216V40A8 8 0 1 0 208 40V216A8 8 0 0 0 224 216zM176 208H80A16.016 16.016 0 0 1 64 192V152A16.016 16.016 0 0 1 80 136H176A16.016 16.016 0 0 1 192 152V192A16.016 16.016 0 0 1 176 208zM176 120H40A16.016 16.016 0 0 1 24 104V64A16.016 16.016 0 0 1 40 48H176A16.016 16.016 0 0 1 192 64V104A16.016 16.016 0 0 1 176 120z" />
    <glyph glyph-name="AlignTop"
      unicode="&#xEA0E;"
      horiz-adv-x="256" d="M224 216A8 8 0 0 0 216 208H40A8 8 0 0 0 40 224H216A8 8 0 0 0 224 216zM192 192H152A16.016 16.016 0 0 1 136 176V80A16.016 16.016 0 0 1 152 64H192A16.016 16.016 0 0 1 208 80V176A16.016 16.016 0 0 1 192 192zM104 192H64A16.016 16.016 0 0 1 48 176V40A16.016 16.016 0 0 1 64 24H104A16.016 16.016 0 0 1 120 40V176A16.016 16.016 0 0 1 104 192z" />
    <glyph glyph-name="Anchor"
      unicode="&#xEA0F;"
      horiz-adv-x="256" d="M216 120A8 8 0 0 1 208 112A40.048 40.048 0 0 0 168 72A47.792 47.792 0 0 1 136 59.728V136H168A8 8 0 0 1 168 152H136V177.168A28 28 0 1 1 120 177.168V152H88A8 8 0 1 1 88 136H120V59.728A47.792 47.792 0 0 1 88 72A40.048 40.048 0 0 0 48 112A8 8 0 1 1 32 112A56.064 56.064 0 0 1 88 56A32.032 32.032 0 0 0 120 24A8 8 0 0 1 136 24A32.032 32.032 0 0 0 168 56A56.064 56.064 0 0 1 224 112A8 8 0 0 1 216 120zM116 204A12 12 0 1 0 140 204A12 12 0 0 0 116 204z" />
    <glyph glyph-name="AnchorSimple"
      unicode="&#xEA10;"
      horiz-adv-x="256" d="M224 144H200A8 8 0 0 1 200 128H215.64A88.144 88.144 0 0 0 136 48.376V161.016A32 32 0 1 1 120 161.016V48.376A88.144 88.144 0 0 0 40.36 128H56A8 8 0 1 1 56 144H32A8 8 0 0 1 24 136A104 104 0 0 1 232 136A8 8 0 0 1 224 144zM112 192A16 16 0 1 0 144 192A16 16 0 0 0 112 192z" />
    <glyph glyph-name="AndroidLogo"
      unicode="&#xEA11;"
      horiz-adv-x="256" d="M207.056 167.336A107.87999999999998 107.87999999999998 0 0 1 204.816 169.496L229.656 194.344A8 8 0 0 1 218.344 205.656L192.376 179.688A111.424 111.424 0 0 1 63.816 179.496L37.656 205.656A8 8 0 0 1 26.344 194.344L51.4 169.28A113.37600000000002 113.37600000000002 0 0 1 16 86.88V64A16.016 16.016 0 0 1 32 48H224A16.016 16.016 0 0 1 240 64V88A111.248 111.248 0 0 1 207.056 167.336zM92 88A12 12 0 1 0 92 111.992A12 12 0 0 0 92 88zM164 88A12 12 0 1 0 164 111.992A12 12 0 0 0 164 88z" />
    <glyph glyph-name="Aperture"
      unicode="&#xEA12;"
      horiz-adv-x="256" d="M232 128A104 104 0 1 1 127.968 24H128.064A104 104 0 0 1 232 128zM49.176 167.08L100.392 157.728L46.648 94.464A88.432 88.432 0 0 0 49.176 167.08zM209.352 161.536A88.432 88.432 0 0 0 206.824 88.92L155.608 98.272L209.352 161.536zM201.272 176.736L167.552 137.04L139.632 215.216A87.98399999999998 87.98399999999998 0 0 0 201.2719999999999 176.736zM122.432 215.808L139.944 166.768L58.296 181.68A87.336 87.336 0 0 0 122.432 215.808zM54.728 79.256L88.448 118.952L116.368 40.784A87.992 87.992 0 0 0 54.728 79.264zM133.568 40.192L116.056 89.232L139.136 85.016L139.184 85L197.704 74.32A87.336 87.336 0 0 0 133.5680000000001 40.192z" />
    <glyph glyph-name="AppWindow"
      unicode="&#xEA13;"
      horiz-adv-x="256" d="M216 216H40A16.016 16.016 0 0 1 24 200V56A16.016 16.016 0 0 1 40 40H216A16.016 16.016 0 0 1 232 56V200A16.016 16.016 0 0 1 216 216zM68 160A12 12 0 1 0 68 183.984A12 12 0 0 0 68 160zM108 160A12 12 0 1 0 108 183.984A12 12 0 0 0 108 159.992z" />
    <glyph glyph-name="AppleLogo"
      unicode="&#xEA14;"
      horiz-adv-x="256" d="M130.656 226.368A40.248 40.248 0 0 0 168 252A8 8 0 1 0 168 236A24.159999999999997 24.159999999999997 0 0 1 145.592 220.616A8 8 0 0 0 130.656 226.376zM222.048 100.248A40.016 40.016 0 0 0 219.312 170.248A7.991999999999999 7.991999999999999 0 0 1 221.456 182.032A68.008 68.008 0 0 1 128 194.992A68 68 0 0 1 20 140C20 114.496 28.336 87.536 42.872 66.024C57.272 44.72 75.632 32 92 32H164C186.464 32 211.92 55.864 225.92 90.032A8 8 0 0 1 222.048 100.24z" />
    <glyph glyph-name="Archive"
      unicode="&#xEA15;"
      horiz-adv-x="256" d="M224 208H32A16.016 16.016 0 0 1 16 192V168A16.016 16.016 0 0 1 32 152V64A16.016 16.016 0 0 1 48 48H208A16.016 16.016 0 0 1 224 64V152A16.016 16.016 0 0 1 240 168V192A16.016 16.016 0 0 1 224 208zM152 112H104A8 8 0 0 0 104 128H152A8 8 0 0 0 152 112zM224 168H32V192H224L224.008 168H224z" />
    <glyph glyph-name="ArchiveBox"
      unicode="&#xEA16;"
      horiz-adv-x="256" d="M223.152 187.576L207.152 219.576A8 8 0 0 1 200 224H56A8 8 0 0 1 48.848 219.576L32.848 187.576A8 8 0 0 1 32 184V48A16.016 16.016 0 0 1 48 32H208A16.016 16.016 0 0 1 224 48V184A8 8 0 0 1 223.152 187.576zM167.6 100.28L133.656 66.344L133.488 66.184L133.08 65.816L132.872 65.664C132.736 65.56 132.592 65.448 132.448 65.352L132.28 65.248A7.84 7.84 0 0 0 131.776 64.952L131.648 64.888A7.84 7.84 0 0 0 131.064 64.608L130.984 64.576A7.991999999999999 7.991999999999999 0 0 0 130.328 64.352C130.304 64.336 130.272 64.336 130.248 64.328A8 8 0 0 0 129.576 64.16L129.376 64.128C129.184 64.096 128.992 64.056 128.8 64.048A7.848000000000001 7.848000000000001 0 0 0 127.2 64.048C127.008 64.056 126.816 64.096 126.624 64.128L126.424 64.16A8 8 0 0 0 125.76 64.32L125.672 64.352A7.759999999999999 7.759999999999999 0 0 0 125.016 64.584L124.936 64.608A7.84 7.84 0 0 0 124.352 64.888L124.224 64.952A8.088 8.088 0 0 0 123.72 65.248L123.552 65.352C123.4 65.448 123.264 65.56 123.128 65.672L122.92 65.816L122.52 66.184L122.344 66.344L88.4 100.28A8 8 0 0 0 99.712 111.6L120 91.312V152A8 8 0 0 0 136 152V91.312L156.28 111.6A7.991999999999999 7.991999999999999 0 0 0 169.944 105.944A8 8 0 0 0 167.6 100.288zM52.944 192L60.944 208H195.056L203.056 192H52.944z" />
    <glyph glyph-name="ArchiveTray"
      unicode="&#xEA17;"
      horiz-adv-x="256" d="M208 224H48A16.016 16.016 0 0 1 32 208V48A16.016 16.016 0 0 1 48 32H208A16.016 16.016 0 0 1 224 48V208A16.016 16.016 0 0 1 208 224zM88.4 143.6A8 8 0 0 0 99.712 143.6L120 123.312V184A8 8 0 0 0 136 184V123.312L156.28 143.6A7.991999999999999 7.991999999999999 0 0 0 169.944 137.944A8 8 0 0 0 167.6 132.288L133.656 98.344L133.488 98.184L133.08 97.816L132.872 97.664C132.736 97.56 132.592 97.448 132.448 97.352L132.28 97.248C132.12 97.144 131.952 97.04 131.776 96.952L131.648 96.888A7.84 7.84 0 0 0 131.064 96.608L130.984 96.584A7.784 7.784 0 0 0 130.328 96.344L130.248 96.328A8 8 0 0 0 129.576 96.16L129.376 96.128C129.184 96.096 128.992 96.056 128.8 96.048A7.84 7.84 0 0 0 127.2 96.048C127.008 96.056 126.816 96.096 126.624 96.128L126.424 96.16A8 8 0 0 0 125.76 96.32L125.672 96.352A7.759999999999999 7.759999999999999 0 0 0 125.016 96.584L124.936 96.608A7.84 7.84 0 0 0 124.352 96.888L124.224 96.952A7.84 7.84 0 0 0 123.72 97.248L123.552 97.352C123.4 97.448 123.264 97.56 123.128 97.672L122.92 97.816L122.52 98.184L122.344 98.344L88.4 132.288A8 8 0 0 0 88.4 143.6zM208 48H48V88H76.68L96 68.688A15.888 15.888 0 0 1 107.32 64H148.688A15.888 15.888 0 0 1 160 68.688L179.312 88H208V48H208z" />
    <glyph glyph-name="Armchair"
      unicode="&#xEA18;"
      horiz-adv-x="256" d="M48 176A48.080000000000005 48.080000000000005 0 0 0 95.336 136H160.664A47.96800000000001 47.96800000000001 0 0 0 216 175.32V184A40.048 40.048 0 0 1 176 224H80A40.048 40.048 0 0 1 40 184V175.32C42.64 175.768 45.32 176 48 176zM239.928 129.992A32.288 32.288 0 0 1 239.664 132.624L239.6 133.056L239.384 134.256L239.328 134.52A32 32 0 0 1 176 128V88A8 8 0 0 0 160 88V120H96V88A8 8 0 0 0 80 88V128A32 32 0 0 1 16.672 134.52L16.616 134.248A31.88 31.88 0 0 1 16.2 131.56L16.152 131.072C16.12 130.712 16.088 130.352 16.072 129.992L16.04 129.536A32.016 32.016 0 0 1 40 97.008V56A16.016 16.016 0 0 1 56 40H200A16.016 16.016 0 0 1 216 56V97.008A32.016 32.016 0 0 1 239.96 129.536C239.96 129.688 239.944 129.84 239.928 129.992z" />
    <glyph glyph-name="ArrowArcLeft"
      unicode="&#xEA19;"
      horiz-adv-x="256" d="M201.536 145.536A104.00800000000001 104.00800000000001 0 0 1 54.464 145.536L36.12 127.2V171.888A8 8 0 0 1 20.12 171.888V107.888A8 8 0 0 1 20.16 107.096L20.2 106.776C20.224 106.632 20.24 106.472 20.28 106.32C20.296 106.2 20.336 106.08 20.36 105.952L20.464 105.568L20.592 105.208C20.632 105.08 20.672 104.952 20.728 104.824L20.872 104.504L21.064 104.112L21.232 103.832C21.312 103.704 21.384 103.568 21.472 103.44L21.68 103.16C21.76 103.04 21.84 102.92 21.936 102.816C22.048 102.672 22.176 102.544 22.304 102.4080000000001L22.464 102.2320000000001L22.624 102.0800000000001L23.04 101.7040000000001L23.36 101.4640000000001C23.464 101.384 23.568 101.3040000000001 23.68 101.2400000000001C23.792 101.1600000000001 23.92 101.0960000000001 24.032 101.0240000000001L24.352 100.8320000000001C24.464 100.7680000000001 24.592 100.7200000000001 24.704 100.6640000000001L25.056 100.5040000000001C25.168 100.448 25.288 100.4160000000001 25.4 100.3760000000001C25.536 100.3280000000001 25.664 100.2720000000001 25.8 100.2320000000001L26.128 100.152L26.56 100.0400000000001L26.92 99.9920000000001L27.336 99.9280000000001L27.944 99.896H92.12A8 8 0 0 1 92.12 115.8960000000001H47.432L65.776 134.232A88 88 0 0 0 216 72A8 8 0 0 1 232 72A103.328 103.328 0 0 1 201.536 145.536z" />
    <glyph glyph-name="ArrowArcRight"
      unicode="&#xEA1A;"
      horiz-adv-x="256" d="M229.08 99.984L229.4400000000001 100.032L229.872 100.144L230.2 100.224C230.336 100.264 230.4640000000001 100.32 230.6 100.368L230.944 100.488L231.296 100.648L231.6560000000001 100.824L231.9680000000001 101.008L232.3280000000001 101.232L232.6400000000001 101.456L232.9600000000001 101.696A7.743999999999999 7.743999999999999 0 0 1 233.3760000000001 102.072C233.4240000000001 102.128 233.4880000000001 102.168 233.5360000000001 102.232L233.6960000000001 102.4C233.8240000000001 102.536 233.9520000000001 102.664 234.0640000000001 102.8L234.3200000000001 103.152L234.5280000000001 103.432C234.6160000000001 103.56 234.6880000000001 103.696 234.7680000000001 103.824L234.9280000000001 104.104C235.0080000000001 104.232 235.0640000000001 104.368 235.1200000000001 104.504L235.2720000000001 104.824L235.4160000000001 105.2L235.5360000000001 105.56L235.6320000000001 105.944C235.6640000000001 106.072 235.7040000000001 106.184 235.7280000000001 106.312L235.7920000000001 106.776C235.8080000000001 106.88 235.8320000000001 106.984 235.8400000000001 107.096A7.832000000000001 7.832000000000001 0 0 1 235.8800000000001 107.888V171.888A8 8 0 1 1 219.8800000000001 171.888V127.192L201.5360000000001 145.536A104 104 0 0 1 24 72A8 8 0 1 1 40 72A88 88 0 0 0 190.224 134.224L208.568 115.88H163.88A8 8 0 1 1 163.88 99.88H227.88L228.056 99.888C228.264 99.888 228.464 99.904 228.664 99.92L229.08 99.984z" />
    <glyph glyph-name="ArrowBendDoubleUpLeft"
      unicode="&#xEA1B;"
      horiz-adv-x="256" d="M43.312 152L85.656 194.344A8 8 0 0 1 74.344 205.656L26.344 157.656A8 8 0 0 1 26.344 146.344L74.344 98.344A8 8 0 0 1 85.656 109.656L43.312 152zM128 160H99.312L133.656 194.344A8 8 0 0 1 122.344 205.656L74.344 157.656L74.184 157.48L73.816 157.08L73.56 156.736L73.352 156.448L73.112 156.056L72.952 155.776C72.872 155.648 72.816 155.512 72.76 155.376L72.608 155.064L72.472 154.68L72.344 154.328C72.304 154.2 72.2800000000001 154.064 72.248 153.928L72.152 153.568L72.088 153.112L72.04 152.792A8.016 8.016 0 0 1 72.04 151.208L72.088 150.888L72.152 150.432L72.248 150.064C72.28 149.936 72.304 149.8 72.344 149.672L72.472 149.32C72.512 149.192 72.552 149.064 72.608 148.936L72.76 148.616L72.944 148.224L73.112 147.944L73.352 147.552L73.56 147.264C73.64 147.1520000000001 73.72 147.0320000000001 73.816 146.928C73.936 146.784 74.056 146.648 74.184 146.5200000000001L74.344 146.344L122.344 98.344A8 8 0 0 1 133.656 109.656L99.312 144H128A88.096 88.096 0 0 0 216 56A8 8 0 0 1 232 56A104.12000000000002 104.12000000000002 0 0 1 128 160z" />
    <glyph glyph-name="ArrowBendDoubleUpRight"
      unicode="&#xEA1C;"
      horiz-adv-x="256" d="M229.656 157.656L181.656 205.656A8 8 0 0 1 170.344 194.344L212.688 152L170.344 109.656A8 8 0 1 1 181.656 98.344L229.656 146.344A8 8 0 0 1 229.656 157.656zM181.816 146.52L182.184 146.92L182.44 147.264L182.648 147.552L182.888 147.944L183.048 148.224C183.128 148.352 183.184 148.488 183.24 148.624L183.392 148.936L183.528 149.32L183.656 149.672C183.696 149.8 183.72 149.936 183.752 150.064L183.848 150.432L183.912 150.888L183.96 151.208A8.064 8.064 0 0 1 183.96 152.792L183.912 153.112L183.848 153.568L183.752 153.936C183.72 154.064 183.696 154.2 183.656 154.328L183.528 154.68C183.488 154.808 183.448 154.936 183.392 155.064L183.24 155.384L183.056 155.776L182.888 156.056L182.648 156.448L182.44 156.736C182.36 156.848 182.28 156.96 182.184 157.072C182.064 157.216 181.944 157.352 181.816 157.48L181.656 157.656L133.656 205.656A8 8 0 0 1 122.344 194.344L156.688 160H128A104.12000000000002 104.12000000000002 0 0 1 24 56A8 8 0 1 1 40 56A88.096 88.096 0 0 0 128 144H156.688L122.344 109.656A8 8 0 0 1 133.656 98.344L181.656 146.344L181.816 146.52z" />
    <glyph glyph-name="ArrowBendDownLeft"
      unicode="&#xEA1D;"
      horiz-adv-x="256" d="M224 208A8 8 0 0 1 216 200A88.096 88.096 0 0 0 128 112H51.312L85.656 146.344A8 8 0 1 1 74.344 157.656L26.344 109.656L26.184 109.48L25.816 109.08L25.56 108.736L25.352 108.448L25.112 108.056L24.952 107.776C24.872 107.648 24.816 107.512 24.76 107.376L24.608 107.064L24.472 106.68L24.344 106.328C24.304 106.2 24.28 106.064 24.248 105.928L24.152 105.568L24.088 105.112L24.04 104.792A8.024 8.024 0 0 1 24.04 103.208L24.088 102.888L24.152 102.432L24.248 102.064C24.28 101.936 24.304 101.8 24.344 101.672L24.472 101.32C24.512 101.192 24.552 101.064 24.608 100.936L24.76 100.616L24.944 100.2240000000001L25.112 99.9440000000001L25.352 99.5520000000001L25.56 99.264C25.64 99.152 25.72 99.032 25.816 98.928C25.936 98.784 26.056 98.648 26.184 98.52L26.344 98.3440000000001L74.344 50.3440000000001A8 8 0 0 1 85.656 61.6560000000001L51.312 96H128A104.12000000000002 104.12000000000002 0 0 1 232 200A8 8 0 0 1 224 208z" />
    <glyph glyph-name="ArrowBendDownRight"
      unicode="&#xEA1E;"
      horiz-adv-x="256" d="M230.184 98.928L230.44 99.264L230.648 99.552L230.888 99.944L231.048 100.224C231.128 100.352 231.184 100.488 231.24 100.624L231.392 100.936L231.528 101.32L231.656 101.672C231.696 101.8 231.72 101.936 231.752 102.072L231.848 102.4320000000001L231.912 102.888L231.96 103.208A8.064 8.064 0 0 1 231.96 104.792L231.912 105.112L231.848 105.568L231.752 105.936C231.72 106.064 231.696 106.2 231.656 106.328L231.528 106.68C231.488 106.808 231.448 106.936 231.392 107.064L231.24 107.384L231.056 107.776L230.888 108.056L230.648 108.448L230.44 108.736C230.36 108.848 230.28 108.968 230.184 109.072C230.064 109.216 229.944 109.352 229.816 109.48L229.656 109.656L181.656 157.656A8 8 0 0 1 170.344 146.344L204.688 112H128A88.096 88.096 0 0 0 40 200A8 8 0 0 1 24 200A104.12000000000002 104.12000000000002 0 0 1 128 96H204.688L170.344 61.656A8 8 0 0 1 181.656 50.344L229.656 98.344L229.816 98.52L230.184 98.92z" />
    <glyph glyph-name="ArrowBendLeftDown"
      unicode="&#xEA1F;"
      horiz-adv-x="256" d="M200 232A104.12000000000002 104.12000000000002 0 0 1 96 128V51.312L61.656 85.656A8 8 0 0 1 50.344 74.344L98.344 26.344L98.512 26.184L98.928 25.816L99.248 25.576C99.352 25.496 99.448 25.416 99.552 25.352L99.928 25.12L100.224 24.944L100.608 24.768L100.936 24.608L101.304 24.472L101.68 24.3440000000001L102.048 24.248L102.44 24.152L102.864 24.0880000000001C102.976 24.0720000000001 103.088 24.0480000000001 103.208 24.0400000000001A8.128 8.128 0 0 1 104.792 24.0400000000001L105.136 24.0880000000001L105.56 24.152L105.96 24.248L106.32 24.3440000000001L106.696 24.472L107.064 24.608L107.392 24.768L107.776 24.944L108.072 25.12L108.448 25.352C108.552 25.416 108.648 25.496 108.744 25.568L109.072 25.816C109.216 25.936 109.352 26.056 109.488 26.192L109.656 26.344L157.656 74.344A8 8 0 0 1 146.344 85.656L112 51.312V128A88.096 88.096 0 0 0 200 216A8 8 0 1 1 200 232z" />
    <glyph glyph-name="ArrowBendLeftUp"
      unicode="&#xEA20;"
      horiz-adv-x="256" d="M200 40A88.096 88.096 0 0 0 112 128V204.688L146.344 170.344A8 8 0 0 1 157.656 181.656L109.656 229.656L109.496 229.808A8.016 8.016 0 0 1 109.072 230.184L108.752 230.424C108.648 230.504 108.552 230.584 108.448 230.648L108.08 230.872C107.976 230.936 107.88 231 107.768 231.056C107.656 231.12 107.528 231.168 107.408 231.232L107.064 231.392L106.72 231.52L106.32 231.656L105.984 231.736L105.56 231.848L105.192 231.904L104.784 231.96A8.12 8.12 0 0 1 104.176 232L104 232L103.824 231.992C103.624 231.992 103.424 231.984 103.216 231.96L102.808 231.904L102.44 231.848L102.016 231.744L101.68 231.656L101.28 231.52L100.944 231.392L100.592 231.232L100.232 231.056L99.912 230.872C99.8 230.792 99.672 230.728 99.552 230.648L99.248 230.424L98.928 230.184A7.976 7.976 0 0 1 98.512 229.808L98.344 229.656L50.344 181.656A8 8 0 0 1 61.656 170.344L96 204.688V128A104.12000000000002 104.12000000000002 0 0 1 200 24A8 8 0 0 1 200 40z" />
    <glyph glyph-name="ArrowBendRightDown"
      unicode="&#xEA22;"
      horiz-adv-x="256" d="M205.656 85.656A8 8 0 0 1 194.344 85.656L160 51.312V128A104.12000000000002 104.12000000000002 0 0 1 56 232A8 8 0 0 1 56 216A88.096 88.096 0 0 0 144 128V51.312L109.656 85.656A8 8 0 0 1 98.344 74.344L146.344 26.344L146.512 26.184L146.928 25.816L147.248 25.576C147.352 25.496 147.448 25.416 147.552 25.352L147.928 25.12L148.224 24.944L148.608 24.768L148.936 24.608L149.304 24.472L149.68 24.3440000000001L150.048 24.248L150.44 24.152L150.864 24.0880000000001L151.208 24.0400000000001A8.128 8.128 0 0 1 152.792 24.0400000000001L153.136 24.0880000000001L153.56 24.152L153.96 24.248L154.32 24.3440000000001L154.696 24.472L155.064 24.608L155.392 24.768L155.776 24.944L156.072 25.12L156.448 25.352C156.552 25.416 156.648 25.496 156.744 25.568L157.072 25.816C157.216 25.936 157.352 26.056 157.488 26.192L157.656 26.344L205.656 74.344A8 8 0 0 1 205.656 85.656z" />
    <glyph glyph-name="ArrowBendRightUp"
      unicode="&#xEA21;"
      horiz-adv-x="256" d="M205.656 181.656L157.656 229.656L157.496 229.808A8.016 8.016 0 0 1 157.072 230.184L156.752 230.424C156.648 230.504 156.552 230.584 156.44 230.648C156.328 230.728 156.2 230.8 156.08 230.872C155.976 230.936 155.88 231 155.768 231.056C155.656 231.12 155.528 231.168 155.408 231.232L155.064 231.392L154.72 231.52L154.32 231.656L153.984 231.736L153.56 231.848L153.192 231.904L152.784 231.96A8.12 8.12 0 0 1 152.176 232L152 232L151.824 231.992C151.616 231.992 151.424 231.976 151.216 231.96L150.808 231.904L150.44 231.848L150.016 231.744L149.68 231.656L149.28 231.52L148.944 231.392L148.592 231.232L148.232 231.056L147.912 230.872L147.56 230.648L147.248 230.424L146.928 230.184A7.944 7.944 0 0 1 146.512 229.808C146.456 229.752 146.392 229.712 146.344 229.656L98.344 181.656A8 8 0 1 1 109.656 170.344L144 204.688V128A88.096 88.096 0 0 0 56 40A8 8 0 0 1 56 24A104.12000000000002 104.12000000000002 0 0 1 160 128V204.688L194.344 170.344A8 8 0 0 1 205.656 181.656z" />
    <glyph glyph-name="ArrowBendUpLeft"
      unicode="&#xEA28;"
      horiz-adv-x="256" d="M128 160H51.312L85.656 194.344A8 8 0 1 1 74.344 205.656L26.344 157.656L26.184 157.48L25.816 157.08L25.56 156.736L25.352 156.448L25.112 156.056L24.952 155.776C24.872 155.648 24.816 155.512 24.76 155.376L24.608 155.064L24.472 154.68L24.344 154.328C24.304 154.2 24.28 154.064 24.248 153.928L24.152 153.568L24.088 153.112L24.04 152.792A8.024 8.024 0 0 1 24.04 151.208L24.088 150.888L24.152 150.432L24.248 150.064C24.28 149.936 24.304 149.8 24.344 149.672L24.472 149.32C24.512 149.192 24.552 149.064 24.608 148.936L24.76 148.616L24.944 148.224L25.112 147.944L25.352 147.552L25.56 147.264C25.64 147.1520000000001 25.72 147.0320000000001 25.816 146.928C25.936 146.784 26.056 146.648 26.184 146.5200000000001L26.344 146.344L74.344 98.344A8 8 0 0 1 85.656 109.656L51.312 144H128A88.096 88.096 0 0 0 216 56A8 8 0 1 1 232 56A104.12000000000002 104.12000000000002 0 0 1 128 160z" />
    <glyph glyph-name="ArrowBendUpRight"
      unicode="&#xEA23;"
      horiz-adv-x="256" d="M230.184 146.928L230.44 147.264L230.648 147.552L230.888 147.944L231.048 148.224C231.128 148.352 231.184 148.488 231.24 148.624L231.392 148.936L231.528 149.32L231.656 149.672C231.696 149.8 231.72 149.936 231.752 150.072L231.848 150.432L231.912 150.888L231.96 151.208A8.064 8.064 0 0 1 231.96 152.792L231.912 153.112L231.848 153.568L231.752 153.936C231.72 154.064 231.696 154.2 231.656 154.328L231.528 154.68C231.488 154.808 231.448 154.936 231.392 155.064L231.24 155.384L231.056 155.776L230.888 156.056L230.648 156.448L230.44 156.736C230.36 156.848 230.28 156.96 230.184 157.072C230.064 157.216 229.944 157.352 229.816 157.48L229.656 157.656L181.656 205.656A8 8 0 0 1 170.344 194.344L204.688 160H128A104.12000000000002 104.12000000000002 0 0 1 24 56A8 8 0 1 1 40 56A88.096 88.096 0 0 0 128 144H204.688L170.344 109.656A8 8 0 0 1 181.656 98.344L229.656 146.344L229.816 146.52L230.184 146.92z" />
    <glyph glyph-name="ArrowCircleDown"
      unicode="&#xEA25;"
      horiz-adv-x="256" d="M128 232A104 104 0 1 1 232 128A104.12000000000002 104.12000000000002 0 0 1 128 232zM167.6 116.28L133.664 82.36A8.024 8.024 0 0 0 122.336 82.36L88.408 116.28A8 8 0 0 0 99.72 127.5920000000001L120 107.312V168A8 8 0 0 0 136 168V107.312L156.28 127.592A8 8 0 0 0 167.592 116.28z" />
    <glyph glyph-name="ArrowCircleDownLeft"
      unicode="&#xEA24;"
      horiz-adv-x="256" d="M128 232A104 104 0 1 1 232 128A104.12000000000002 104.12000000000002 0 0 1 128 232zM161.656 150.344L119.312 108H148A8 8 0 0 0 148 92H100A8.032 8.032 0 0 0 92 100V148A8 8 0 0 0 108 148V119.312L150.344 161.656A8 8 0 0 0 161.656 150.344z" />
    <glyph glyph-name="ArrowCircleDownRight"
      unicode="&#xEA26;"
      horiz-adv-x="256" d="M128 232A104 104 0 1 1 232 128A104.12000000000002 104.12000000000002 0 0 1 128 232zM164 100A8.032 8.032 0 0 0 156 92H108A8 8 0 0 0 108 108H136.688L94.344 150.344A8 8 0 0 0 105.656 161.656L148 119.312V148A8 8 0 0 0 164 148V100z" />
    <glyph glyph-name="ArrowCircleLeft"
      unicode="&#xEA27;"
      horiz-adv-x="256" d="M128 232A104 104 0 1 1 232 128A104.12000000000002 104.12000000000002 0 0 1 128 232zM168 120H107.312L127.592 99.72A8 8 0 1 0 116.28 88.408L82.36 122.328A8.024 8.024 0 0 0 82.36 133.664L116.28 167.592A8 8 0 0 0 127.592 156.28L107.312 136H168A8 8 0 0 0 168 120z" />
    <glyph glyph-name="ArrowCircleRight"
      unicode="&#xEA29;"
      horiz-adv-x="256" d="M128 232A104 104 0 1 1 232 128A104.12000000000002 104.12000000000002 0 0 1 128 232zM175.384 124.944A8 8 0 0 0 173.648 122.336L139.72 88.408A8 8 0 0 0 128.408 99.72L148.688 120H88A8 8 0 0 0 88 136H148.688L128.408 156.28A8 8 0 0 0 139.72 167.592L173.64 133.672A8.032 8.032 0 0 0 175.384 124.952z" />
    <glyph glyph-name="ArrowCircleUp"
      unicode="&#xEA2A;"
      horiz-adv-x="256" d="M128 232A104 104 0 1 1 232 128A104.12000000000002 104.12000000000002 0 0 1 128 232zM167.6 128.4A7.976 7.976 0 0 0 156.28 128.4L136 148.696V88A8 8 0 0 0 120 88V148.688L99.72 128.408A8 8 0 0 0 88.408 139.72L122.328 173.64A8.024 8.024 0 0 0 133.664 173.64L167.592 139.72A7.984000000000001 7.984000000000001 0 0 0 167.592 128.408z" />
    <glyph glyph-name="ArrowCircleUpLeft"
      unicode="&#xEA2B;"
      horiz-adv-x="256" d="M128 232A104 104 0 1 1 232 128A104.12000000000002 104.12000000000002 0 0 1 128 232zM161.656 94.344A8 8 0 0 0 150.344 94.344L108 136.688V108A8 8 0 0 0 92 108V156A8.032 8.032 0 0 0 100 164H148A8 8 0 0 0 148 148H119.312L161.656 105.656A8 8 0 0 0 161.656 94.344z" />
    <glyph glyph-name="ArrowCircleUpRight"
      unicode="&#xEA2C;"
      horiz-adv-x="256" d="M201.544 201.544A104 104 0 1 1 201.544 54.464A104.104 104.104 0 0 1 201.544 201.544zM163.992 108A8 8 0 0 0 147.992 108V136.688L105.648 94.344A8 8 0 0 0 94.336 105.656L136.68 148H108A8 8 0 1 0 108 164H156A8.032 8.032 0 0 0 164 156V108z" />
    <glyph glyph-name="ArrowClockwise"
      unicode="&#xEA2D;"
      horiz-adv-x="256" d="M225.336 148.376L225.728 148.44C225.864 148.464 226.008 148.504 226.144 148.544L226.488 148.624L226.888 148.768L227.224 148.896L227.5840000000001 149.056L227.9360000000001 149.232C228.0480000000001 149.288 228.1520000000001 149.36 228.2560000000001 149.424C228.3760000000001 149.488 228.4960000000001 149.552 228.6080000000001 149.632L228.9520000000001 149.88L229.2400000000001 150.096L229.7760000000001 150.576L229.8240000000001 150.624L229.8800000000001 150.688A7.84 7.84 0 0 1 230.3520000000001 151.216L230.5840000000001 151.52L230.8240000000001 151.84C230.9040000000001 151.96 230.9680000000001 152.08 231.0400000000001 152.208L231.2240000000001 152.512L231.4080000000001 152.896L231.5600000000001 153.216L231.6960000000001 153.6L231.8240000000001 153.96L231.9200000000001 154.344L232.0080000000001 154.72L232.0880000000001 155.176L232.1280000000001 155.496C232.1520000000001 155.76 232.1680000000001 156.024 232.1680000000001 156.296V204.28A8 8 0 0 1 216.168 204.28V175.592L195.88 195.872A95.952 95.952 0 1 1 195.88 60.112A7.984000000000001 7.984000000000001 0 0 1 193.288 73.16A7.984000000000001 7.984000000000001 0 0 1 184.568 71.424A80 80 0 1 0 184.568 184.56L204.856 164.28H176.16A8 8 0 1 1 176.16 148.28H224.24C224.48 148.28 224.72 148.2960000000001 224.944 148.3200000000001L225.328 148.3680000000001z" />
    <glyph glyph-name="ArrowCounterClockwise"
      unicode="&#xEA2E;"
      horiz-adv-x="256" d="M195.88 195.88A96.112 96.112 0 0 1 60.12 195.88L39.832 175.6V204.28A8 8 0 0 1 23.832 204.28V156.288C23.832 156.024 23.848 155.76 23.872 155.488L23.92 155.168L23.992 154.72L24.072 154.344L24.176 153.96L24.304 153.6L24.44 153.224L24.6 152.896C24.656 152.768 24.712 152.632 24.776 152.512L24.96 152.208L25.184 151.84L25.416 151.5200000000001L25.648 151.208C25.8 151.0320000000001 25.952 150.856 26.12 150.6880000000001L26.176 150.624L26.224 150.584C26.4 150.416 26.576 150.2480000000001 26.76 150.1040000000001L27.048 149.88L27.392 149.632C27.504 149.552 27.624 149.488 27.736 149.424L28.056 149.232L28.416 149.0560000000001L28.776 148.896L29.12 148.768L29.52 148.624L29.856 148.5440000000001C29.992 148.504 30.128 148.464 30.272 148.44L30.672 148.376L31.048 148.3200000000001C31.28 148.304 31.512 148.2880000000001 31.744 148.2880000000001H79.84A8 8 0 1 1 79.84 164.2880000000001H51.144L71.44 184.56A80 80 0 1 0 71.44 71.424A7.991999999999999 7.991999999999999 0 0 1 58.392 62.704A8 8 0 0 1 60.128 60.112A96 96 0 1 1 195.888 195.872z" />
    <glyph glyph-name="ArrowDown"
      unicode="&#xEA2F;"
      horiz-adv-x="256" d="M205.656 117.656A8 8 0 0 1 194.344 117.656L136 59.312V216A8 8 0 0 1 120 216V59.312L61.656 117.656A8 8 0 0 1 50.344 106.344L122.344 34.344L122.424 34.264C122.584 34.104 122.752 33.96 122.928 33.816L123.232 33.592L123.552 33.352L123.912 33.128L124.232 32.944L124.592 32.768L124.936 32.608L125.296 32.48L125.68 32.344L126.04 32.256C126.168 32.216 126.304 32.176 126.44 32.152L126.856 32.088L127.208 32.04A7.880000000000001 7.880000000000001 0 0 1 128.792 32.04C128.912 32.048 129.024 32.072 129.144 32.088L129.56 32.152L129.96 32.256L130.32 32.344L130.704 32.48L131.064 32.608L131.408 32.768L131.768 32.944L132.088 33.128L132.44 33.352C132.56 33.424 132.664 33.512 132.768 33.592L133.072 33.816C133.248 33.96 133.416 34.12 133.584 34.28L133.664 34.344L205.664 106.344A8.008 8.008 0 0 1 205.664 117.656z" />
    <glyph glyph-name="ArrowDownLeft"
      unicode="&#xEA30;"
      horiz-adv-x="256" d="M57.592 59.232C57.512 59.336 57.424 59.44 57.352 59.552L57.128 59.912L56.944 60.232L56.768 60.592L56.608 60.936L56.48 61.296L56.344 61.68L56.256 62.04C56.216 62.168 56.176 62.304 56.152 62.44L56.088 62.856L56.04 63.208A7.944 7.944 0 0 0 56 63.976V168A8 8 0 1 0 72 168V83.312L186.344 197.656A8 8 0 0 0 197.656 186.344L83.312 72H168A8 8 0 1 0 168 56H64C63.736 56 63.472 56.016 63.208 56.04L62.856 56.088L62.44 56.152L62.04 56.256L61.68 56.344L61.296 56.48L60.936 56.608L60.592 56.768L60.232 56.944L59.912 57.128L59.56 57.352C59.448 57.424 59.336 57.5119999999999 59.232 57.592L58.928 57.816A8.152 8.152 0 0 0 58.416 58.28L58.336 58.3439999999999L58.288 58.4079999999999A8.096 8.096 0 0 0 57.808 58.9279999999999C57.728 59.024 57.664 59.1279999999999 57.592 59.2319999999999z" />
    <glyph glyph-name="ArrowDownRight"
      unicode="&#xEA31;"
      horiz-adv-x="256" d="M198.408 59.232C198.488 59.336 198.576 59.44 198.648 59.552L198.864 59.912C198.928 60.016 199 60.12 199.056 60.232L199.232 60.592L199.392 60.936L199.52 61.296L199.656 61.68L199.744 62.04C199.784 62.168 199.824 62.304 199.848 62.44L199.912 62.856L199.96 63.208A7.92 7.92 0 0 1 200 63.976V168A8 8 0 1 1 184 168V83.312L69.656 197.656A8 8 0 0 1 58.344 186.344L172.688 72H88A8 8 0 1 1 88 56H192C192.264 56 192.528 56.016 192.792 56.04L193.144 56.088L193.56 56.152L193.96 56.256L194.32 56.344L194.704 56.48L195.064 56.608L195.408 56.768L195.776 56.944L196.088 57.128L196.44 57.352C196.56 57.424 196.664 57.5119999999999 196.768 57.592L197.072 57.816C197.248 57.96 197.416 58.12 197.584 58.28L197.6640000000001 58.3439999999999L197.7120000000001 58.4079999999999C197.8720000000001 58.5679999999999 198.0320000000001 58.7439999999999 198.192 58.9279999999999C198.2720000000001 59.024 198.3360000000001 59.1279999999999 198.4080000000001 59.2319999999999z" />
    <glyph glyph-name="ArrowElbowDownLeft"
      unicode="&#xEA32;"
      horiz-adv-x="256" d="M192 232A8 8 0 0 1 184 224V88H67.312L101.656 122.344A8 8 0 1 1 90.344 133.656L42.344 85.656L42.288 85.592C42.128 85.432 41.968 85.256 41.808 85.072C41.728 84.976 41.656 84.864 41.584 84.76L41.344 84.44L41.12 84.072L40.944 83.776L40.76 83.392L40.608 83.064L40.472 82.688L40.344 82.328C40.304 82.2 40.28 82.072 40.248 81.936L40.152 81.568L40.088 81.112C40.072 81 40.048 80.904 40.04 80.792A8.024 8.024 0 0 1 40.04 79.208C40.048 79.096 40.072 79 40.088 78.888L40.152 78.4320000000001L40.248 78.0640000000001C40.28 77.9280000000001 40.304 77.8 40.344 77.6720000000001L40.472 77.312C40.52 77.1840000000001 40.552 77.0640000000001 40.608 76.936L40.768 76.616L40.944 76.2240000000001L41.12 75.9280000000001C41.2 75.8000000000001 41.264 75.6800000000001 41.352 75.5600000000001L41.584 75.2400000000001C41.664 75.1360000000001 41.728 75.0240000000001 41.816 74.9200000000001C41.96 74.7440000000001 42.12 74.5760000000001 42.288 74.4080000000001L42.344 74.3440000000001L90.344 26.3440000000001A8 8 0 0 1 101.656 37.6560000000001L67.312 72H192A8 8 0 0 1 200 80V224A8 8 0 0 1 192 232z" />
    <glyph glyph-name="ArrowElbowDownRight"
      unicode="&#xEA33;"
      horiz-adv-x="256" d="M214.184 74.928L214.424 75.24C214.496 75.344 214.584 75.448 214.648 75.56L214.88 75.928L215.056 76.224L215.24 76.608L215.392 76.936L215.528 77.312L215.656 77.672C215.696 77.8 215.72 77.928 215.752 78.064L215.848 78.432L215.912 78.888C215.928 79 215.952 79.096 215.96 79.208A8.064 8.064 0 0 1 215.96 80.792C215.952 80.904 215.928 81 215.912 81.112L215.848 81.568L215.752 81.936C215.72 82.072 215.696 82.2 215.656 82.328L215.528 82.688C215.48 82.816 215.448 82.936 215.392 83.064L215.232 83.384L215.056 83.776L214.872 84.072L214.648 84.4399999999999L214.416 84.7599999999999C214.336 84.864 214.272 84.9759999999999 214.184 85.0799999999999A8.28 8.28 0 0 1 213.712 85.5919999999999L213.656 85.6559999999999L165.656 133.6559999999999A8 8 0 0 1 154.344 122.3439999999999L188.688 88H72V224A8 8 0 0 1 56 224V80A8 8 0 0 1 64 72H188.688L154.344 37.656A8 8 0 0 1 165.656 26.344L213.656 74.344L213.712 74.408C213.872 74.568 214.032 74.744 214.192 74.928z" />
    <glyph glyph-name="ArrowElbowLeft"
      unicode="&#xEA34;"
      horiz-adv-x="256" d="M237.656 165.656A8 8 0 0 1 226.344 165.656L136 75.312L43.312 168H96A8 8 0 0 1 96 184H24L23.824 183.992C23.624 183.992 23.424 183.984 23.216 183.96L22.808 183.904L22.44 183.848L22.016 183.744L21.68 183.656L21.28 183.5200000000001L20.944 183.392L20.592 183.232L20.232 183.0560000000001L19.912 182.872C19.8 182.792 19.672 182.728 19.552 182.648L19.248 182.424L18.928 182.184L18.512 181.808L18.344 181.656L18.184 181.48L17.816 181.08L17.56 180.736L17.352 180.448L17.112 180.0560000000001L16.952 179.776C16.872 179.648 16.816 179.512 16.76 179.376L16.608 179.064L16.472 178.68L16.344 178.328C16.304 178.2 16.28 178.064 16.248 177.928L16.152 177.568L16.088 177.112L16.04 176.792A7.968 7.968 0 0 1 16 175.992V104A8 8 0 1 1 32 104V156.688L130.344 58.344A8 8 0 0 1 141.656 58.344L237.656 154.344A8 8 0 0 1 237.656 165.656z" />
    <glyph glyph-name="ArrowElbowLeftDown"
      unicode="&#xEA35;"
      horiz-adv-x="256" d="M224 200H80A8 8 0 0 1 72 192V67.312L37.656 101.656A8 8 0 0 1 26.344 90.344L74.344 42.344L74.392 42.296A8 8 0 0 1 74.928 41.816L75.216 41.6C75.328 41.52 75.44 41.424 75.56 41.352C75.672 41.272 75.792 41.208 75.912 41.136C76.016 41.072 76.12 41 76.232 40.944L76.592 40.768L76.936 40.608L77.296 40.48L77.68 40.344L78.04 40.256C78.168 40.216 78.304 40.176 78.44 40.152L78.864 40.088L79.208 40.04A8.136 8.136 0 0 1 80.792 40.04L81.136 40.088L81.56 40.152L81.96 40.256L82.32 40.344L82.704 40.48L83.064 40.608L83.408 40.768L83.768 40.944L84.088 41.136C84.208 41.208 84.328 41.272 84.44 41.352L84.784 41.592L85.072 41.816C85.256 41.968 85.432 42.136 85.608 42.296L85.656 42.344L133.656 90.344A8 8 0 1 1 122.344 101.656L88 67.312V184H224A8 8 0 1 1 224 200z" />
    <glyph glyph-name="ArrowElbowLeftUp"
      unicode="&#xEA36;"
      horiz-adv-x="256" d="M224 72H88V188.688L122.344 154.344A8 8 0 0 1 133.656 165.656L85.656 213.656L85.608 213.704A8.08 8.08 0 0 1 85.072 214.184L84.784 214.4L84.44 214.656L84.096 214.864L83.776 215.056L83.416 215.224C83.296 215.28 83.176 215.344 83.056 215.384C82.944 215.44 82.832 215.472 82.712 215.52L82.32 215.656L81.976 215.744C81.8400000000001 215.776 81.704 215.824 81.5600000000001 215.848L81.16 215.904L80.784 215.96A8.032 8.032 0 0 1 80.088 215.992L80 216H79.912A8 8 0 0 1 79.216 215.96L78.832 215.904L78.432 215.848L78.024 215.744L77.68 215.656L77.28 215.52L76.944 215.392C76.816 215.344 76.704 215.28 76.584 215.232L76.232 215.056L75.912 214.864L75.56 214.656L75.216 214.4L74.928 214.184A7.944 7.944 0 0 1 74.392 213.704L74.344 213.656L26.344 165.656A8 8 0 0 1 37.656 154.344L72 188.688V64A8 8 0 0 1 80 56H224A8 8 0 0 1 224 72z" />
    <glyph glyph-name="ArrowElbowRight"
      unicode="&#xEA37;"
      horiz-adv-x="256" d="M239.96 176.792L239.912 177.112L239.848 177.568L239.752 177.936C239.72 178.064 239.696 178.2 239.656 178.328L239.528 178.68C239.4880000000001 178.808 239.448 178.936 239.392 179.064L239.2400000000001 179.384L239.0560000000001 179.776L238.8880000000001 180.056L238.648 180.448L238.4400000000001 180.736C238.36 180.848 238.2800000000001 180.968 238.1840000000001 181.072C238.064 181.216 237.944 181.352 237.8160000000001 181.48L237.6560000000001 181.656L237.4960000000001 181.808L237.0720000000001 182.184L236.7520000000001 182.424C236.648 182.504 236.5520000000001 182.584 236.4480000000001 182.648L236.0800000000001 182.872C235.9760000000001 182.936 235.8800000000001 183 235.7680000000001 183.056C235.6560000000001 183.12 235.528 183.168 235.408 183.232L235.064 183.392L234.7200000000001 183.52L234.32 183.656L233.984 183.736L233.56 183.848L233.192 183.904L232.784 183.96A8.08 8.08 0 0 1 232.176 184L232 184H160A8 8 0 1 1 160 168H212.688L120 75.312L29.656 165.656A8 8 0 0 1 18.344 154.344L114.344 58.344A8 8 0 0 1 125.656 58.344L224 156.688V104A8 8 0 0 1 240 104V176C240 176.264 239.984 176.528 239.96 176.792z" />
    <glyph glyph-name="ArrowElbowRightDown"
      unicode="&#xEA38;"
      horiz-adv-x="256" d="M229.656 101.656A8 8 0 0 1 218.344 101.656L184 67.312V192A8 8 0 0 1 176 200H32A8 8 0 0 1 32 184H168V67.312L133.656 101.656A8 8 0 0 1 122.344 90.344L170.344 42.344L170.392 42.296C170.568 42.136 170.744 41.968 170.928 41.816C171.024 41.736 171.12 41.672 171.224 41.6C171.328 41.52 171.44 41.424 171.56 41.352C171.672 41.272 171.792 41.208 171.912 41.136C172.016 41.072 172.12 41 172.232 40.944L172.592 40.768L172.936 40.608L173.296 40.48L173.68 40.344L174.04 40.256C174.176 40.216 174.304 40.176 174.44 40.152L174.864 40.088L175.208 40.04A8.128 8.128 0 0 1 176.792 40.04L177.136 40.088L177.56 40.152L177.96 40.256L178.3200000000001 40.344L178.704 40.48L179.0640000000001 40.608L179.4080000000001 40.768L179.7680000000001 40.944L180.0880000000001 41.136C180.2080000000001 41.208 180.3280000000001 41.272 180.4400000000001 41.352L180.7840000000001 41.592L181.0720000000001 41.816C181.2560000000001 41.968 181.4320000000001 42.136 181.6080000000001 42.296L181.6560000000001 42.344L229.6560000000001 90.344A8 8 0 0 1 229.6560000000001 101.656z" />
    <glyph glyph-name="ArrowElbowRightUp"
      unicode="&#xEA39;"
      horiz-adv-x="256" d="M229.656 165.656L181.656 213.656L181.608 213.704A8.104 8.104 0 0 1 181.072 214.184L180.784 214.4L180.44 214.656L180.096 214.864L179.776 215.056L179.416 215.224C179.296 215.28 179.176 215.344 179.056 215.384C178.944 215.44 178.832 215.472 178.712 215.52L178.32 215.656L177.976 215.744C177.84 215.776 177.704 215.824 177.56 215.848L177.16 215.904L176.784 215.96A8.064 8.064 0 0 1 176.088 215.992L176 216H175.912C175.672 216 175.448 215.984 175.216 215.96L174.832 215.904L174.432 215.848L174.032 215.744L173.68 215.656L173.28 215.52L172.936 215.392L172.584 215.232L172.232 215.056L171.912 214.864L171.56 214.656L171.216 214.4L170.928 214.184A7.904 7.904 0 0 1 170.392 213.704L170.344 213.656L122.344 165.656A8 8 0 0 1 133.656 154.344L168 188.688V72H32A8 8 0 0 1 32 56H176A8 8 0 0 1 184 64V188.688L218.344 154.344A8 8 0 0 1 229.656 165.656z" />
    <glyph glyph-name="ArrowElbowUpLeft"
      unicode="&#xEA3A;"
      horiz-adv-x="256" d="M192 184H67.312L101.656 218.344A8 8 0 1 1 90.344 229.656L42.344 181.656L42.288 181.592A8 8 0 0 1 41.808 181.072L41.584 180.76L41.344 180.44L41.12 180.072L40.944 179.776L40.76 179.392L40.608 179.064L40.472 178.688L40.344 178.328C40.304 178.2 40.28 178.064 40.248 177.936L40.152 177.5680000000001L40.088 177.112L40.04 176.792A8.024 8.024 0 0 1 40.04 175.208C40.048 175.096 40.072 174.992 40.088 174.888L40.152 174.432L40.248 174.064C40.28 173.936 40.304 173.8000000000001 40.344 173.672L40.472 173.3120000000001C40.52 173.184 40.552 173.064 40.608 172.936L40.768 172.6160000000001L40.944 172.2240000000001L41.12 171.9280000000001L41.352 171.5600000000001L41.584 171.2400000000001L41.816 170.9200000000001C41.96 170.7440000000001 42.12 170.5760000000001 42.288 170.4080000000001L42.344 170.3440000000001L90.344 122.3440000000001A8 8 0 1 1 101.656 133.6560000000001L67.312 168H184V32A8 8 0 1 1 200 32V176A8 8 0 0 1 192 184z" />
    <glyph glyph-name="ArrowElbowUpRight"
      unicode="&#xEA3B;"
      horiz-adv-x="256" d="M214.184 170.928L214.424 171.24C214.496 171.344 214.584 171.448 214.648 171.56L214.88 171.928L215.056 172.224L215.24 172.608L215.392 172.928L215.528 173.312L215.656 173.672C215.696 173.8 215.72 173.936 215.752 174.064L215.848 174.432L215.912 174.888C215.928 174.992 215.952 175.096 215.96 175.208A8.056 8.056 0 0 1 215.96 176.792L215.912 177.112L215.848 177.568L215.752 177.936C215.72 178.064 215.696 178.2 215.656 178.328L215.528 178.688C215.48 178.816 215.448 178.936 215.392 179.064L215.232 179.384L215.056 179.776L214.872 180.072L214.648 180.44L214.416 180.7599999999999C214.336 180.864 214.272 180.968 214.184 181.072A7.944 7.944 0 0 1 213.712 181.5919999999999L213.656 181.656L165.656 229.656A8 8 0 0 1 154.344 218.3439999999999L188.688 184H64A8 8 0 0 1 56 176V32A8 8 0 1 1 72 32V168H188.688L154.344 133.656A8 8 0 0 1 165.656 122.344L213.656 170.344L213.712 170.408C213.872 170.568 214.032 170.744 214.192 170.928z" />
    <glyph glyph-name="ArrowFatDown"
      unicode="&#xEA3C;"
      horiz-adv-x="256" d="M229.656 114.344L133.656 18.344A8 8 0 0 0 122.344 18.344L26.344 114.344A8 8 0 0 0 32 128H72V208A16.016 16.016 0 0 0 88 224H168A16.016 16.016 0 0 0 184 208V128H224A8 8 0 0 0 229.656 114.344z" />
    <glyph glyph-name="ArrowFatLeft"
      unicode="&#xEA3D;"
      horiz-adv-x="256" d="M114.344 26.344L18.344 122.344A8 8 0 0 0 18.344 133.656L114.344 229.656A8 8 0 0 0 128 224V184H208A16.016 16.016 0 0 0 224 168V88A16.016 16.016 0 0 0 208 72H128V32A8 8 0 0 0 114.344 26.344z" />
    <glyph glyph-name="ArrowFatLineDown"
      unicode="&#xEA3E;"
      horiz-adv-x="256" d="M229.656 114.344L133.656 18.344A8 8 0 0 0 122.344 18.344L26.344 114.344A8 8 0 0 0 32 128H72V184A8 8 0 0 0 80 192H176A8 8 0 0 0 184 184V128H224A8 8 0 0 0 229.656 114.344zM184 216A8 8 0 0 1 176 224H80A8 8 0 0 1 80 208H176A8 8 0 0 1 184 216z" />
    <glyph glyph-name="ArrowFatLineLeft"
      unicode="&#xEA3F;"
      horiz-adv-x="256" d="M114.344 26.344L18.344 122.344A8 8 0 0 0 18.344 133.656L114.344 229.656A8 8 0 0 0 128 224V184H184A8 8 0 0 0 192 176V80A8 8 0 0 0 184 72H128V32A8 8 0 0 0 114.344 26.344zM216 72A8 8 0 0 1 224 80V176A8 8 0 0 1 208 176V80A8 8 0 0 1 216 72z" />
    <glyph glyph-name="ArrowFatLineRight"
      unicode="&#xEA40;"
      horiz-adv-x="256" d="M132.936 24.608A8 8 0 0 0 128 32V72H72A8 8 0 0 0 64 80V176A8 8 0 0 0 72 184H128V224A8 8 0 0 0 141.656 229.656L237.656 133.656A8 8 0 0 0 237.656 122.344L141.656 26.344A8 8 0 0 0 132.936 24.608zM48 80V176A8 8 0 0 1 32 176V80A8 8 0 1 1 48 80z" />
    <glyph glyph-name="ArrowFatLineUp"
      unicode="&#xEA41;"
      horiz-adv-x="256" d="M231.392 132.936A8 8 0 0 0 224 128H184V72A8 8 0 0 0 176 64H80A8 8 0 0 0 72 72V128H32A8 8 0 0 0 26.344 141.656L122.344 237.656A8 8 0 0 0 133.656 237.656L229.656 141.656A8 8 0 0 0 231.392 132.936zM176 48H80A8 8 0 0 1 80 32H176A8 8 0 0 1 176 48z" />
    <glyph glyph-name="ArrowFatLinesDown"
      unicode="&#xEA42;"
      horiz-adv-x="256" d="M229.656 114.344L133.656 18.344A8 8 0 0 0 122.344 18.344L26.344 114.344A8 8 0 0 0 32 128H72V152A8 8 0 0 0 80 160H176A8 8 0 0 0 184 152V128H224A8 8 0 0 0 229.656 114.344zM184 216A8 8 0 0 1 176 224H80A8 8 0 1 1 80 208H176A8 8 0 0 1 184 216zM184 184A8 8 0 0 1 176 192H80A8 8 0 1 1 80 176H176A8 8 0 0 1 184 184z" />
    <glyph glyph-name="ArrowFatLinesLeft"
      unicode="&#xEA43;"
      horiz-adv-x="256" d="M114.344 26.344L18.344 122.344A8 8 0 0 0 18.344 133.656L114.344 229.656A8 8 0 0 0 128 224V184H152A8 8 0 0 0 160 176V80A8 8 0 0 0 152 72H128V32A8 8 0 0 0 114.344 26.344zM216 72A8 8 0 0 1 224 80V176A8 8 0 0 1 208 176V80A8 8 0 0 1 216 72zM184 72A8 8 0 0 1 192 80V176A8 8 0 0 1 176 176V80A8 8 0 0 1 184 72z" />
    <glyph glyph-name="ArrowFatLinesRight"
      unicode="&#xEA44;"
      horiz-adv-x="256" d="M132.936 24.608A8 8 0 0 0 128 32V72H104A8 8 0 0 0 96 80V176A8 8 0 0 0 104 184H128V224A8 8 0 0 0 141.656 229.656L237.656 133.656A8 8 0 0 0 237.656 122.344L141.656 26.344A8 8 0 0 0 132.936 24.608zM48 80V176A8 8 0 0 1 32 176V80A8 8 0 1 1 48 80zM80 80V176A8 8 0 0 1 64 176V80A8 8 0 1 1 80 80z" />
    <glyph glyph-name="ArrowFatLinesUp"
      unicode="&#xEA45;"
      horiz-adv-x="256" d="M231.392 132.936A8 8 0 0 0 224 128H184V104A8 8 0 0 0 176 96H80A8 8 0 0 0 72 104V128H32A8 8 0 0 0 26.344 141.656L122.344 237.656A8 8 0 0 0 133.656 237.656L229.656 141.656A8 8 0 0 0 231.392 132.936zM176 48H80A8 8 0 0 1 80 32H176A8 8 0 0 1 176 48zM176 80H80A8 8 0 0 1 80 64H176A8 8 0 0 1 176 80z" />
    <glyph glyph-name="ArrowFatRight"
      unicode="&#xEA46;"
      horiz-adv-x="256" d="M132.936 24.608A8 8 0 0 0 128 32V72H48A16.016 16.016 0 0 0 32 88V168A16.016 16.016 0 0 0 48 184H128V224A8 8 0 0 0 141.656 229.656L237.656 133.656A8 8 0 0 0 237.656 122.344L141.656 26.344A8 8 0 0 0 132.936 24.608z" />
    <glyph glyph-name="ArrowFatUp"
      unicode="&#xEA47;"
      horiz-adv-x="256" d="M231.392 132.936A8 8 0 0 0 224 128H184V48A16.016 16.016 0 0 0 168 32H88A16.016 16.016 0 0 0 72 48V128H32A8 8 0 0 0 26.344 141.656L122.344 237.656A8 8 0 0 0 133.656 237.656L229.656 141.656A8 8 0 0 0 231.392 132.936z" />
    <glyph glyph-name="ArrowLeft"
      unicode="&#xEA48;"
      horiz-adv-x="256" d="M117.656 50.344A8 8 0 0 1 117.656 61.656L59.312 120H216A8 8 0 0 1 216 136H59.312L117.656 194.344A8 8 0 0 1 106.344 205.656L34.344 133.656L34.264 133.576C34.104 133.416 33.96 133.248 33.816 133.072L33.592 132.768L33.352 132.448L33.128 132.088L32.944 131.768L32.768 131.408L32.608 131.064L32.48 130.704L32.344 130.32L32.248 129.96L32.152 129.56L32.088 129.144L32.04 128.792A8.056 8.056 0 0 1 32.04 127.208C32.048 127.088 32.072 126.976 32.088 126.856L32.152 126.44L32.248 126.04L32.344 125.68L32.48 125.296L32.608 124.936L32.768 124.592L32.944 124.232L33.128 123.912L33.352 123.56C33.424 123.44 33.512 123.336 33.592 123.232L33.816 122.928A7.904 7.904 0 0 1 34.28 122.416L34.344 122.336L106.344 50.336A8.008 8.008 0 0 1 117.656 50.336z" />
    <glyph glyph-name="ArrowLineDown"
      unicode="&#xEA49;"
      horiz-adv-x="256" d="M50.344 138.344A8 8 0 0 0 61.656 149.664L120 91.32V224A8 8 0 0 0 136 224V91.32L194.344 149.664A8 8 0 0 0 205.656 138.344L133.656 66.344A7.952000000000001 7.952000000000001 0 0 0 133.072 65.816L132.808 65.616C132.688 65.528 132.568 65.432 132.44 65.352C132.328 65.272 132.216 65.216 132.104 65.144L131.768 64.952L131.416 64.776L131.064 64.616L130.712 64.488L130.32 64.352L129.968 64.256L129.568 64.16C129.424 64.128 129.28 64.112 129.144 64.096L128.792 64.048A7.880000000000001 7.880000000000001 0 0 0 127.208 64.048C127.0879999999999 64.048 126.968 64.08 126.856 64.096C126.72 64.112 126.5759999999999 64.128 126.44 64.16C126.304 64.184 126.1679999999999 64.224 126.0399999999999 64.256L125.6799999999999 64.352C125.544 64.392 125.416 64.4320000000001 125.288 64.488C125.176 64.528 125.048 64.568 124.944 64.616C124.816 64.664 124.704 64.72 124.584 64.776L124.232 64.944L123.896 65.144L123.56 65.352C123.432 65.432 123.32 65.528 123.192 65.616C123.112 65.688 123.016 65.744 122.928 65.816A8.112 8.112 0 0 0 122.344 66.352L50.344 138.352zM216 48H40A8 8 0 0 1 40 32H216A8 8 0 1 1 216 48z" />
    <glyph glyph-name="ArrowLineDownLeft"
      unicode="&#xEA4A;"
      horiz-adv-x="256" d="M181.656 173.656A8 8 0 0 0 181.656 162.344L83.312 64H164A8 8 0 0 0 164 48H64A7.888 7.888 0 0 0 63.208 48.04C63.088 48.048 62.976 48.072 62.856 48.088L62.44 48.152L62.04 48.256L61.68 48.344L61.296 48.48L60.936 48.608L60.6 48.768L60.232 48.944L59.912 49.128L59.56 49.352L59.24 49.5839999999999L58.92 49.8159999999999A7.984000000000001 7.984000000000001 0 0 0 58.464 50.2319999999999L58.344 50.3439999999999L58.24 50.4639999999999A8.216 8.216 0 0 0 57.816 50.9279999999999L57.576 51.2479999999999C57.496 51.3439999999999 57.416 51.4479999999999 57.352 51.5599999999999C57.272 51.6719999999999 57.192 51.8 57.128 51.92L56.944 52.224L56.768 52.6L56.608 52.936L56.48 53.304C56.432 53.424 56.384 53.544 56.344 53.68L56.248 54.048L56.152 54.44L56.088 54.864L56.04 55.208A8.064 8.064 0 0 0 56 56V156A8 8 0 1 0 72 156V75.312L170.344 173.656A8 8 0 0 0 181.656 173.656zM216 224H40A8 8 0 0 1 40 208H216A8 8 0 1 1 216 224z" />
    <glyph glyph-name="ArrowLineDownRight"
      unicode="&#xEA4B;"
      horiz-adv-x="256" d="M200 156V56C200 55.736 199.984 55.472 199.96 55.208L199.912 54.864L199.848 54.44L199.752 54.04L199.656 53.68C199.616 53.552 199.576 53.424 199.52 53.304L199.392 52.936L199.232 52.6L199.0560000000001 52.224L198.8720000000001 51.92L198.6480000000001 51.5599999999999L198.4240000000001 51.24L198.1840000000001 50.92C198.0480000000001 50.76 197.9040000000001 50.6 197.7520000000001 50.448L197.6560000000001 50.3439999999999L197.5440000000001 50.2399999999999A7.991999999999999 7.991999999999999 0 0 0 197.0720000000001 49.8159999999999L196.7680000000001 49.5839999999999L196.4480000000001 49.3439999999999C196.3280000000001 49.2639999999999 196.2080000000001 49.1999999999999 196.0800000000001 49.1279999999999C195.9760000000001 49.0719999999999 195.8800000000001 48.9999999999999 195.7680000000001 48.9439999999999L195.4000000000001 48.7679999999999L195.0640000000001 48.6079999999999L194.704 48.4799999999999L194.3200000000001 48.3439999999999L193.96 48.2559999999999C193.8240000000001 48.216 193.696 48.1759999999999 193.56 48.1519999999999L193.144 48.0879999999999L192.792 48.0399999999999A7.880000000000001 7.880000000000001 0 0 0 192 48H92A8 8 0 0 0 92 64H172.688L74.344 162.344A8 8 0 0 0 85.656 173.656L184 75.312V156A8 8 0 0 0 200 156zM216 224H40A8 8 0 0 1 40 208H216A8 8 0 1 1 216 224z" />
    <glyph glyph-name="ArrowLineLeft"
      unicode="&#xEA4C;"
      horiz-adv-x="256" d="M138.344 205.656A8 8 0 0 0 149.656 194.344L91.312 136H224A8 8 0 0 0 224 120H91.312L149.656 61.656A8 8 0 0 0 138.344 50.344L66.344 122.344A8.064 8.064 0 0 0 65.816 122.928C65.736 123.016 65.68 123.104 65.616 123.192L65.344 123.56L65.144 123.896L64.944 124.232C64.88 124.344 64.832 124.472 64.776 124.584C64.72 124.704 64.656 124.8240000000001 64.616 124.936C64.56 125.0560000000001 64.52 125.1760000000001 64.48 125.2880000000001L64.344 125.68L64.256 126.0320000000001C64.216 126.168 64.176 126.304 64.152 126.4320000000001L64.088 126.8560000000001L64.04 127.2080000000001A8.032 8.032 0 0 0 64.04 128.7920000000001C64.048 128.9120000000001 64.072 129.0320000000001 64.088 129.1440000000001L64.152 129.5600000000001L64.256 129.9600000000001L64.344 130.3200000000001L64.48 130.7120000000001C64.52 130.8240000000001 64.56 130.9520000000001 64.608 131.0560000000001C64.656 131.1840000000001 64.72 131.2960000000001 64.768 131.4160000000001L64.944 131.7680000000001L65.144 132.1040000000001L65.344 132.4400000000001C65.424 132.5680000000001 65.52 132.6800000000001 65.616 132.8080000000001L65.808 133.0720000000001C65.984 133.2720000000001 66.16 133.472 66.344 133.6560000000001L138.344 205.6560000000001zM48 40V216A8 8 0 0 1 32 216V40A8 8 0 1 1 48 40z" />
    <glyph glyph-name="ArrowLineRight"
      unicode="&#xEA4D;"
      horiz-adv-x="256" d="M189.656 133.656A7.791999999999999 7.791999999999999 0 0 0 190.184 133.072C190.264 132.984 190.32 132.896 190.384 132.808L190.656 132.44L190.856 132.104L191.056 131.768C191.12 131.656 191.168 131.528 191.224 131.416C191.28 131.296 191.344 131.176 191.384 131.064C191.44 130.944 191.48 130.824 191.52 130.712L191.656 130.32L191.744 129.968C191.7839999999999 129.832 191.824 129.696 191.848 129.568L191.912 129.144L191.96 128.792A7.880000000000001 7.880000000000001 0 0 0 191.96 127.208C191.952 127.088 191.928 126.968 191.912 126.856L191.848 126.44L191.744 126.04L191.656 125.68L191.52 125.288L191.392 124.936L191.232 124.584L191.056 124.232L190.856 123.896L190.656 123.56C190.576 123.432 190.472 123.3199999999999 190.384 123.192L190.192 122.928C190.016 122.728 189.84 122.5279999999999 189.656 122.3439999999999L117.656 50.3439999999999A8 8 0 0 0 106.344 61.656L164.688 120H32A8 8 0 0 0 32 136H164.688L106.344 194.344A8 8 0 0 0 117.656 205.656L189.656 133.656zM216 32A8 8 0 0 1 224 40V216A8 8 0 0 1 208 216V40A8 8 0 0 1 216 32z" />
    <glyph glyph-name="ArrowLineUp"
      unicode="&#xEA4E;"
      horiz-adv-x="256" d="M122.344 189.656A7.807999999999999 7.807999999999999 0 0 0 122.928 190.184C123.016 190.264 123.104 190.32 123.192 190.384L123.56 190.656L123.896 190.856L124.232 191.0560000000001C124.344 191.12 124.472 191.168 124.584 191.2240000000001C124.704 191.28 124.824 191.3440000000001 124.936 191.384C125.056 191.44 125.176 191.48 125.288 191.5200000000001L125.68 191.656L126.032 191.744C126.168 191.784 126.304 191.824 126.432 191.848L126.856 191.912L127.208 191.96A8.032 8.032 0 0 0 128.792 191.96C128.912 191.952 129.032 191.928 129.144 191.912L129.56 191.848L129.96 191.744L130.32 191.656L130.712 191.5200000000001L131.064 191.392L131.416 191.232L131.768 191.0560000000001L132.1040000000001 190.856L132.4400000000001 190.656C132.5680000000001 190.576 132.6800000000001 190.48 132.8080000000001 190.384L133.0720000000001 190.192C133.2720000000001 190.016 133.4720000000001 189.84 133.6560000000001 189.656L205.6560000000001 117.656A8 8 0 0 0 194.3440000000001 106.344L136 164.688V32A8 8 0 0 0 120 32V164.688L61.656 106.344A8 8 0 0 0 50.344 117.656L122.344 189.656zM224 216A8 8 0 0 1 216 224H40A8 8 0 0 1 40 208H216A8 8 0 0 1 224 216z" />
    <glyph glyph-name="ArrowLineUpLeft"
      unicode="&#xEA4F;"
      horiz-adv-x="256" d="M176 80A7.968 7.968 0 0 0 170.344 82.344L72 180.688V100A8 8 0 1 0 56 100V200C56 200.264 56.016 200.528 56.04 200.792L56.088 201.136L56.152 201.56L56.248 201.96L56.344 202.32L56.48 202.704L56.608 203.064L56.768 203.408L56.944 203.768C57 203.88 57.072 203.984 57.136 204.088L57.344 204.44L57.6 204.784L57.816 205.072C58.152 205.472 58.52 205.856 58.936 206.192L59.2 206.392L59.56 206.656L59.896 206.856L60.232 207.056C60.344 207.12 60.464 207.168 60.584 207.224C60.704 207.28 60.824 207.344 60.944 207.384C61.056 207.44 61.168 207.472 61.28 207.52L61.68 207.656L62.024 207.744C62.16 207.776 62.296 207.824 62.44 207.848L62.832 207.904L63.216 207.96C63.448 207.984 63.68 207.992 63.912 207.992L64 208H164A8 8 0 1 0 164 192H83.312L181.656 93.656A8 8 0 0 0 176 80zM32 40A8 8 0 0 1 40 32H216A8 8 0 1 1 216 48H40A8 8 0 0 1 32 40z" />
    <glyph glyph-name="ArrowLineUpRight"
      unicode="&#xEA50;"
      horiz-adv-x="256" d="M74.344 82.344A8 8 0 0 0 74.344 93.656L172.688 192H92A8 8 0 1 0 92 208H192.088A8 8 0 0 0 192.784 207.96L193.168 207.904L193.568 207.848L193.976 207.744L194.32 207.656L194.72 207.52L195.056 207.392C195.184 207.344 195.296 207.28 195.416 207.232L195.768 207.056L196.104 206.856L196.44 206.656L196.8000000000001 206.392L197.072 206.184C197.472 205.856 197.856 205.48 198.192 205.064C198.2640000000001 204.984 198.328 204.88 198.4 204.784L198.656 204.44C198.7360000000001 204.328 198.792 204.208 198.864 204.096L199.0560000000001 203.776L199.232 203.408L199.392 203.064L199.52 202.704L199.656 202.32L199.752 201.96L199.848 201.56L199.912 201.136L199.96 200.792C199.984 200.528 200 200.264 200 200V100A8 8 0 0 0 184 100V180.688L85.656 82.344A8 8 0 0 0 74.344 82.344zM216 48H40A8 8 0 0 1 40 32H216A8 8 0 1 1 216 48z" />
    <glyph glyph-name="ArrowRight"
      unicode="&#xEA51;"
      horiz-adv-x="256" d="M138.344 50.344A8 8 0 0 0 138.344 61.656L196.688 120H40A8 8 0 0 0 40 136H196.688L138.344 194.344A8 8 0 0 0 149.656 205.656L221.656 133.656L221.736 133.576C221.896 133.416 222.04 133.248 222.184 133.072L222.408 132.768L222.648 132.448L222.872 132.088L223.056 131.768L223.232 131.408L223.392 131.064L223.52 130.704L223.656 130.32L223.744 129.96C223.784 129.832 223.824 129.696 223.848 129.56L223.912 129.144L223.96 128.792A7.880000000000001 7.880000000000001 0 0 0 223.96 127.208C223.952 127.088 223.928 126.976 223.912 126.856L223.848 126.44L223.744 126.04L223.656 125.68L223.52 125.296L223.392 124.936L223.232 124.592L223.056 124.232L222.872 123.912L222.648 123.56C222.576 123.44 222.488 123.336 222.408 123.232L222.184 122.928A8.04 8.04 0 0 0 221.72 122.416L221.656 122.336L149.656 50.336A8.008 8.008 0 0 0 138.344 50.336z" />
    <glyph glyph-name="ArrowSquareDown"
      unicode="&#xEA52;"
      horiz-adv-x="256" d="M208 224H48A16.016 16.016 0 0 1 32 208V48A16.016 16.016 0 0 1 48 32H208A16.016 16.016 0 0 1 224 48V208A16.016 16.016 0 0 1 208 224zM167.6 116.28L133.664 82.36A8.024 8.024 0 0 0 122.328 82.36L88.4 116.28A8 8 0 0 0 99.712 127.5920000000001L120 107.312V168A8 8 0 1 0 136 168V107.304L156.296 127.592A8 8 0 0 0 167.608 116.28z" />
    <glyph glyph-name="ArrowSquareDownLeft"
      unicode="&#xEA53;"
      horiz-adv-x="256" d="M224 48V208A16.016 16.016 0 0 1 208 224H48A16.016 16.016 0 0 1 32 208V48A16.016 16.016 0 0 1 48 32H208A16.016 16.016 0 0 1 224 48zM161.656 150.344L119.312 108H148A8 8 0 0 0 148 92H100L99.824 92.008C99.624 92.008 99.424 92.024 99.216 92.04L98.808 92.096L98.44 92.152L98.008 92.264L97.688 92.3440000000001C97.544 92.384 97.416 92.4400000000001 97.28 92.4880000000001L96.944 92.6080000000001C96.816 92.6560000000001 96.704 92.7200000000001 96.584 92.7680000000001L96.232 92.9440000000001L95.904 93.1360000000001C95.784 93.2080000000001 95.664 93.2720000000001 95.56 93.3520000000001L95.216 93.5920000000001L94.928 93.8160000000001A8.208 8.208 0 0 0 94.4 94.2880000000001L94.344 94.3440000000001L94.296 94.3920000000001A7.800000000000001 7.800000000000001 0 0 0 93.816 94.9280000000001L93.592 95.2320000000001C93.512 95.3360000000001 93.424 95.4400000000001 93.352 95.5520000000001L93.128 95.9120000000001L92.944 96.2320000000001L92.768 96.6000000000001L92.608 96.9360000000001L92.48 97.3040000000001C92.432 97.4240000000001 92.384 97.5440000000001 92.344 97.6800000000001L92.248 98.0480000000001L92.152 98.4400000000001L92.088 98.8720000000001L92.04 99.2080000000001A7.960000000000001 7.960000000000001 0 0 0 92 100.0080000000001V148A8 8 0 0 0 108 148V119.312L150.344 161.656A8 8 0 0 0 161.656 150.344z" />
    <glyph glyph-name="ArrowSquareDownRight"
      unicode="&#xEA54;"
      horiz-adv-x="256" d="M48 32H208A16.016 16.016 0 0 1 224 48V208A16.016 16.016 0 0 1 208 224H48A16.016 16.016 0 0 1 32 208V48A16.016 16.016 0 0 1 48 32zM94.344 161.656A8 8 0 0 0 105.656 161.656L148 119.312V148A8 8 0 0 0 164 148V100A7.944 7.944 0 0 0 163.96 99.208L163.912 98.872L163.848 98.432L163.752 98.048L163.656 97.68L163.52 97.304L163.392 96.936L163.232 96.6L163.0560000000001 96.232C163 96.12 162.9280000000001 96.016 162.864 95.912C162.8000000000001 95.792 162.728 95.672 162.648 95.56C162.576 95.44 162.488 95.336 162.408 95.232L162.184 94.928A7.800000000000001 7.800000000000001 0 0 0 161.704 94.392L161.656 94.344L161.5920000000001 94.288C161.4320000000001 94.128 161.256 93.968 161.072 93.808L160.784 93.6L160.44 93.344L160.096 93.136L159.7760000000001 92.944L159.416 92.776L159.056 92.608L158.72 92.488C158.584 92.44 158.456 92.384 158.32 92.344L157.992 92.264L157.56 92.152L157.192 92.096L156.784 92.0399999999999L156.176 92.0079999999999L156 91.9999999999999H108A8 8 0 1 0 108 107.9999999999999H136.688L94.344 150.3439999999999A8.008 8.008 0 0 0 94.344 161.6559999999999z" />
    <glyph glyph-name="ArrowSquareIn"
      unicode="&#xEA55;"
      horiz-adv-x="256" d="M119.992 112L120 52A8 8 0 1 0 104 52V92.68L45.616 34.32A8 8 0 0 0 34.304 45.64L92.672 104L52 104A8 8 0 1 0 52 120L112 119.992A8 8 0 0 0 119.992 111.992zM208 224H72A16.016 16.016 0 0 1 56 208V160A8 8 0 1 1 72 160V208H208V72H160A8 8 0 0 1 160 56H208A16.016 16.016 0 0 1 224 72V208A16.016 16.016 0 0 1 208 224z" />
    <glyph glyph-name="ArrowSquareLeft"
      unicode="&#xEA56;"
      horiz-adv-x="256" d="M224 48V208A16.016 16.016 0 0 1 208 224H48A16.016 16.016 0 0 1 32 208V48A16.016 16.016 0 0 1 48 32H208A16.016 16.016 0 0 1 224 48zM116.28 88.4L82.36 122.336A8.024 8.024 0 0 0 82.36 133.672L116.28 167.592A8 8 0 0 0 127.592 156.288L107.312 136H168A8 8 0 1 0 168 120H107.312L127.592 99.704A8 8 0 0 0 116.28 88.392z" />
    <glyph glyph-name="ArrowSquareOut"
      unicode="&#xEA57;"
      horiz-adv-x="256" d="M224 156A8 8 0 0 0 208 156V196.68L149.624 138.312A8 8 0 0 0 138.312 149.632L196.68 207.992L156 208A8 8 0 0 0 156 224L216 223.992A8 8 0 0 0 223.992 215.992L224 156zM184 120A8 8 0 0 1 176 112V48H48V176H112A8 8 0 1 1 112 192H48A16.016 16.016 0 0 1 32 176V48A16.016 16.016 0 0 1 48 32H176A16.016 16.016 0 0 1 192 48V112A8 8 0 0 1 184 120z" />
    <glyph glyph-name="ArrowSquareRight"
      unicode="&#xEA58;"
      horiz-adv-x="256" d="M48 32H208A16.016 16.016 0 0 1 224 48V208A16.016 16.016 0 0 1 208 224H48A16.016 16.016 0 0 1 32 208V48A16.016 16.016 0 0 1 48 32zM128.4 88.4A7.984000000000001 7.984000000000001 0 0 0 128.4 99.712L148.704 120H88A8 8 0 0 0 88 136H148.688L128.408 156.28A8 8 0 0 0 139.72 167.592L173.64 133.664A8.024 8.024 0 0 0 173.64 122.336L139.72 88.392A8 8 0 0 0 128.408 88.392z" />
    <glyph glyph-name="ArrowSquareUp"
      unicode="&#xEA59;"
      horiz-adv-x="256" d="M224 48V208A16.016 16.016 0 0 1 208 224H48A16.016 16.016 0 0 1 32 208V48A16.016 16.016 0 0 1 48 32H208A16.016 16.016 0 0 1 224 48zM167.6 128.4A7.984000000000001 7.984000000000001 0 0 0 156.288 128.4L136 148.696V88A8 8 0 0 0 120 88V148.688L99.72 128.408A8 8 0 0 0 88.408 139.72L122.336 173.64A8.024 8.024 0 0 0 133.664 173.64L167.608 139.72A8 8 0 0 0 167.608 128.408z" />
    <glyph glyph-name="ArrowSquareUpLeft"
      unicode="&#xEA5A;"
      horiz-adv-x="256" d="M208 224H48A16.016 16.016 0 0 1 32 208V48A16.016 16.016 0 0 1 48 32H208A16.016 16.016 0 0 1 224 48V208A16.016 16.016 0 0 1 208 224zM161.656 94.344A8 8 0 0 0 150.344 94.344L108 136.688V108A8 8 0 0 0 92 108V156C92 156.264 92.016 156.528 92.04 156.792L92.088 157.128L92.152 157.568L92.248 157.952L92.344 158.32L92.48 158.696L92.608 159.064L92.768 159.4L92.944 159.768C93 159.88 93.072 159.984 93.136 160.088C93.2 160.208 93.272 160.328 93.352 160.44L93.592 160.776L93.816 161.072A7.800000000000001 7.800000000000001 0 0 0 94.296 161.608L94.344 161.656L94.408 161.712C94.568 161.872 94.744 162.032 94.928 162.192L95.216 162.4C95.328 162.48 95.44 162.576 95.56 162.648C95.672 162.728 95.784 162.792 95.904 162.864L96.224 163.056L96.584 163.224L96.944 163.392L97.28 163.512C97.416 163.56 97.544 163.616 97.68 163.656L98.008 163.736L98.44 163.848L98.808 163.904L99.216 163.96C99.416 163.984 99.616 163.984 99.824 163.992L100 164H148A8 8 0 0 0 148 148H119.312L161.656 105.656A8.008 8.008 0 0 0 161.656 94.344z" />
    <glyph glyph-name="ArrowSquareUpRight"
      unicode="&#xEA5B;"
      horiz-adv-x="256" d="M32 208V48A16.016 16.016 0 0 1 48 32H208A16.016 16.016 0 0 1 224 48V208A16.016 16.016 0 0 1 208 224H48A16.016 16.016 0 0 1 32 208zM94.344 105.656L136.688 148H108A8 8 0 0 0 108 164H156L156.176 163.992C156.384 163.992 156.576 163.976 156.784 163.96L157.192 163.904L157.56 163.848L157.992 163.736L158.312 163.656C158.456 163.616 158.584 163.56 158.72 163.512L159.056 163.392C159.184 163.344 159.296 163.28 159.416 163.232L159.768 163.056L160.096 162.864C160.216 162.792 160.336 162.728 160.44 162.648L160.784 162.408L161.072 162.184C161.256 162.04 161.424 161.88 161.6 161.7120000000001L161.656 161.656L161.704 161.608A7.800000000000001 7.800000000000001 0 0 0 162.184 161.072L162.408 160.776C162.488 160.6640000000001 162.576 160.56 162.648 160.44L162.872 160.088L163.056 159.768L163.232 159.4L163.392 159.064L163.5199999999999 158.696C163.5679999999999 158.576 163.6159999999999 158.4560000000001 163.6559999999999 158.3200000000001C163.6959999999999 158.2000000000001 163.7199999999999 158.0800000000001 163.7519999999999 157.9520000000001L163.8479999999999 157.5680000000001L163.9119999999999 157.1280000000001L163.9599999999999 156.792A7.944 7.944 0 0 0 163.9999999999999 155.9920000000001V108A8 8 0 0 0 147.9999999999999 108V136.688L105.6559999999999 94.344A8 8 0 0 0 94.3439999999999 105.656z" />
    <glyph glyph-name="ArrowUDownLeft"
      unicode="&#xEA5C;"
      horiz-adv-x="256" d="M168 208H80A8 8 0 1 1 80 192H168A48 48 0 1 0 168 96H51.312L85.656 130.344A8 8 0 1 1 74.344 141.656L26.344 93.656L26.272 93.576C26.112 93.416 25.96 93.256 25.816 93.072L25.576 92.752C25.496 92.656 25.416 92.552 25.352 92.448L25.12 92.072L24.944 91.776L24.76 91.384L24.608 91.064L24.472 90.688L24.344 90.328C24.304 90.2 24.28 90.064 24.248 89.936L24.152 89.568L24.088 89.112L24.04 88.792A8.024 8.024 0 0 1 24.04 87.208L24.088 86.888L24.152 86.4320000000001L24.248 86.0640000000001C24.28 85.9360000000001 24.304 85.8 24.344 85.6720000000001L24.472 85.3200000000001C24.52 85.1920000000001 24.552 85.0640000000001 24.608 84.9360000000001L24.768 84.6160000000001L24.944 84.2240000000001L25.12 83.9280000000001L25.352 83.5520000000001L25.576 83.2400000000001L25.816 82.9200000000001L26.264 82.4320000000001L26.344 82.3440000000001L74.344 34.3440000000001A8 8 0 1 1 85.656 45.6560000000001L51.312 80H168A64 64 0 0 1 168 208z" />
    <glyph glyph-name="ArrowUDownRight"
      unicode="&#xEA5D;"
      horiz-adv-x="256" d="M230.184 82.928L230.424 83.248C230.504 83.352 230.584 83.448 230.648 83.552L230.888 83.936L231.048 84.224C231.128 84.352 231.176 84.488 231.24 84.616L231.392 84.936L231.528 85.32L231.656 85.672C231.696 85.8 231.72 85.936 231.752 86.064L231.848 86.432L231.912 86.888L231.96 87.2079999999999A8.064 8.064 0 0 1 231.96 88.792L231.912 89.1119999999999L231.848 89.5679999999999L231.752 89.9359999999999C231.72 90.0639999999999 231.696 90.1999999999999 231.656 90.3279999999999L231.528 90.6799999999999C231.488 90.8079999999999 231.448 90.9359999999999 231.392 91.0639999999999L231.24 91.3839999999999L231.056 91.7759999999999L230.88 92.0639999999999C230.8 92.1919999999999 230.736 92.3199999999999 230.648 92.4479999999999L230.4240000000001 92.7519999999999L230.1840000000001 93.0719999999999A7.752 7.752 0 0 1 229.7440000000001 93.5599999999999L229.664 93.6559999999999L181.664 141.6559999999999A8 8 0 0 1 170.344 130.3439999999999L204.688 96H88A48 48 0 1 0 88 192H176A8 8 0 1 1 176 208H88A64 64 0 1 1 88 80H204.688L170.344 45.656A8 8 0 0 1 181.656 34.344L229.656 82.344L229.752 82.448C229.904 82.608 230.048 82.76 230.184 82.928z" />
    <glyph glyph-name="ArrowULeftDown"
      unicode="&#xEA5E;"
      horiz-adv-x="256" d="M144 232A64.072 64.072 0 0 1 80 168V51.312L45.656 85.656A8 8 0 0 1 34.344 74.344L82.344 26.344L82.424 26.272C82.584 26.112 82.744 25.96 82.928 25.816L83.232 25.584L83.552 25.344C83.672 25.264 83.792 25.2 83.92 25.128L84.224 24.944L84.6 24.768L84.936 24.608L85.304 24.472L85.68 24.344L86.048 24.248L86.44 24.152L86.864 24.088L87.208 24.04A8.128 8.128 0 0 1 88.792 24.04L89.136 24.088L89.56 24.152L89.96 24.248L90.32 24.344L90.696 24.48L91.064 24.608L91.4 24.768L91.776 24.944L92.08 25.128L92.448 25.352L92.768 25.592L93.072 25.816C93.248 25.96 93.416 26.12 93.584 26.272L93.664 26.344L141.664 74.344A8 8 0 0 1 130.344 85.656L96 51.312V168A48 48 0 1 0 192 168V80A8 8 0 1 1 208 80V168A64.072 64.072 0 0 1 144 232z" />
    <glyph glyph-name="ArrowULeftUp"
      unicode="&#xEA5F;"
      horiz-adv-x="256" d="M200 184A8 8 0 0 1 192 176V88A48 48 0 1 0 96 88V204.688L130.344 170.344A8 8 0 0 1 141.656 181.656L93.656 229.656L93.608 229.704A7.92 7.92 0 0 1 93.072 230.184L92.784 230.4L92.44 230.656L92.096 230.864L91.776 231.056L91.416 231.224C91.296 231.28 91.176 231.344 91.056 231.384C90.944 231.44 90.832 231.48 90.712 231.52L90.32 231.656L89.976 231.744C89.8400000000001 231.776 89.704 231.824 89.5600000000001 231.848L89.16 231.904L88.784 231.96A8.064 8.064 0 0 1 88.088 231.992L88 232H87.912C87.672 232 87.448 231.984 87.216 231.96L86.832 231.904L86.432 231.848L86.032 231.744L85.68 231.656L85.28 231.52L84.944 231.392C84.816 231.344 84.704 231.28 84.584 231.232L84.232 231.056L83.912 230.864L83.56 230.656L83.216 230.4L82.928 230.184C82.744 230.032 82.568 229.864 82.392 229.704L82.344 229.656L34.344 181.656A8 8 0 1 1 45.656 170.344L80 204.688V88A64 64 0 0 1 208 88V176A8 8 0 0 1 200 184z" />
    <glyph glyph-name="ArrowURightDown"
      unicode="&#xEA60;"
      horiz-adv-x="256" d="M221.656 85.656A8 8 0 0 1 210.344 85.656L176 51.312V168A64 64 0 0 1 48 168V80A8 8 0 1 1 64 80V168A48 48 0 1 0 160 168V51.312L125.656 85.656A8 8 0 0 1 114.344 74.344L162.344 26.344L162.392 26.296C162.568 26.136 162.744 25.968 162.928 25.816C163.024 25.736 163.12 25.672 163.224 25.6C163.336 25.52 163.44 25.424 163.56 25.352C163.672 25.272 163.792 25.208 163.912 25.136C164.016 25.072 164.12 25 164.232 24.944L164.592 24.768L164.936 24.608L165.296 24.48L165.68 24.344L166.04 24.256C166.176 24.216 166.304 24.176 166.44 24.152L166.864 24.088L167.208 24.04A8.128 8.128 0 0 1 168.792 24.04L169.136 24.088L169.56 24.152L169.96 24.256L170.3200000000001 24.344L170.704 24.48L171.0640000000001 24.608L171.4080000000001 24.768L171.7680000000001 24.944L172.0880000000001 25.136C172.2080000000001 25.208 172.3280000000001 25.272 172.4400000000001 25.352L172.7840000000001 25.592L173.0720000000001 25.816C173.2560000000001 25.968 173.4320000000001 26.136 173.6080000000001 26.296L173.6560000000001 26.344L221.6560000000001 74.344A8 8 0 0 1 221.6560000000001 85.656z" />
    <glyph glyph-name="ArrowURightUp"
      unicode="&#xEA61;"
      horiz-adv-x="256" d="M221.656 181.656L173.656 229.656L173.592 229.712C173.432 229.872 173.256 230.032 173.072 230.192L172.768 230.416L172.448 230.656C172.328 230.736 172.208 230.8 172.08 230.872C171.976 230.936 171.88 231 171.768 231.056L171.4 231.232L171.064 231.392L170.696 231.528L170.328 231.656L169.952 231.752L169.56 231.848L169.128 231.912L168.792 231.96A8.064 8.064 0 0 1 167.208 231.96L166.872 231.912L166.432 231.848L166.048 231.752L165.672 231.656L165.304 231.528C165.184 231.48 165.064 231.448 164.936 231.392L164.6 231.232L164.232 231.056L163.912 230.872L163.56 230.648C163.448 230.576 163.344 230.488 163.24 230.408L162.92 230.184A8.056 8.056 0 0 1 162.408 229.712L162.344 229.656L114.344 181.656A8 8 0 0 1 125.656 170.344L160 204.688V88A48 48 0 1 0 64 88V176A8 8 0 0 1 48 176V88A64 64 0 0 1 176 88V204.688L210.344 170.344A8 8 0 0 1 221.656 181.656z" />
    <glyph glyph-name="ArrowUUpLeft"
      unicode="&#xEA62;"
      horiz-adv-x="256" d="M168 176H51.312L85.656 210.344A8 8 0 1 1 74.344 221.656L26.344 173.656L26.264 173.56A7.824 7.824 0 0 1 25.816 173.08L25.576 172.752C25.496 172.648 25.416 172.552 25.352 172.448L25.112 172.064L24.952 171.776C24.872 171.648 24.824 171.52 24.76 171.384L24.608 171.064L24.472 170.68L24.344 170.328C24.304 170.2 24.28 170.064 24.248 169.936L24.152 169.568L24.088 169.112L24.04 168.792A8.024 8.024 0 0 1 24.04 167.208L24.088 166.888L24.152 166.432L24.248 166.064C24.28 165.936 24.304 165.8 24.344 165.672L24.472 165.32C24.52 165.192 24.552 165.064 24.608 164.936L24.76 164.6160000000001L24.944 164.2240000000001L25.12 163.936C25.2 163.8080000000001 25.264 163.68 25.352 163.552L25.576 163.2480000000001L25.816 162.9280000000001C25.952 162.7600000000001 26.096 162.6080000000001 26.248 162.448L26.344 162.3440000000001L74.344 114.3440000000001A8 8 0 1 1 85.656 125.6560000000001L51.312 160H168A48 48 0 0 0 168 64H80A8 8 0 0 1 80 48H168A64 64 0 1 1 168 176z" />
    <glyph glyph-name="ArrowUUpRight"
      unicode="&#xEA63;"
      horiz-adv-x="256" d="M170.344 114.344A8 8 0 0 1 181.656 114.344L229.656 162.344L229.752 162.448A7.936 7.936 0 0 1 230.184 162.928L230.424 163.248C230.504 163.352 230.584 163.448 230.648 163.552L230.888 163.936L231.048 164.224C231.128 164.352 231.176 164.48 231.24 164.616L231.392 164.936L231.528 165.32L231.656 165.672C231.696 165.8 231.72 165.936 231.752 166.064L231.848 166.432L231.912 166.888L231.96 167.208A8.064 8.064 0 0 1 231.96 168.792L231.912 169.112L231.848 169.568L231.752 169.936C231.72 170.064 231.696 170.2 231.656 170.328L231.528 170.68C231.488 170.808 231.448 170.936 231.392 171.064L231.24 171.384L231.056 171.776L230.88 172.064C230.8 172.192 230.736 172.3199999999999 230.648 172.448C230.5840000000001 172.552 230.504 172.648 230.4240000000001 172.752L230.1840000000001 173.072A7.752 7.752 0 0 1 229.7440000000001 173.56L229.664 173.656L181.664 221.656A8 8 0 0 1 170.344 210.3439999999999L204.688 176H88A64 64 0 0 1 88 48H176A8 8 0 1 1 176 64H88A48 48 0 1 0 88 160H204.688L170.344 125.656A8 8 0 0 1 170.344 114.344z" />
    <glyph glyph-name="ArrowUp"
      unicode="&#xEA64;"
      horiz-adv-x="256" d="M205.656 138.344A8 8 0 0 0 194.344 138.344L136 196.688V40A8 8 0 0 0 120 40V196.688L61.656 138.344A8 8 0 0 0 50.344 149.656L122.344 221.656L122.424 221.736C122.584 221.896 122.752 222.04 122.928 222.184L123.232 222.408L123.552 222.648L123.912 222.872L124.232 223.056L124.592 223.232L124.936 223.392L125.296 223.52L125.68 223.656L126.04 223.752L126.44 223.848L126.856 223.912L127.208 223.96A8.056 8.056 0 0 0 128.792 223.96C128.912 223.952 129.032 223.928 129.144 223.912L129.56 223.848L129.96 223.752L130.32 223.656L130.704 223.52L131.064 223.392L131.408 223.232L131.768 223.056L132.088 222.872L132.44 222.648C132.56 222.576 132.664 222.488 132.768 222.408L133.072 222.184A7.904 7.904 0 0 0 133.584 221.72L133.664 221.656L205.664 149.656A8.008 8.008 0 0 0 205.664 138.344z" />
    <glyph glyph-name="ArrowUpLeft"
      unicode="&#xEA65;"
      horiz-adv-x="256" d="M56 192.024C56 192.28 56.016 192.536 56.04 192.792C56.048 192.912 56.072 193.032 56.088 193.144L56.152 193.56L56.256 193.96L56.344 194.32L56.48 194.704L56.608 195.064L56.768 195.408L56.944 195.768L57.128 196.088L57.352 196.44C57.424 196.56 57.512 196.664 57.592 196.776L57.816 197.072C57.96 197.256 58.12 197.424 58.288 197.592L58.344 197.656L58.416 197.72C58.576 197.88 58.752 198.04 58.928 198.184L59.224 198.408L59.56 198.648C59.672 198.728 59.792 198.792 59.904 198.864L60.224 199.056L60.584 199.224L60.944 199.392L61.28 199.512C61.416 199.56 61.544 199.616 61.68 199.656L62.008 199.736L62.44 199.848L62.808 199.904L63.216 199.96A8.16 8.16 0 0 0 63.824 200L64 200H168A8 8 0 1 0 168 184H83.312L197.656 69.656A8 8 0 0 0 186.344 58.344L72 172.688V88A8 8 0 1 0 56 88V192.024z" />
    <glyph glyph-name="ArrowUpRight"
      unicode="&#xEA66;"
      horiz-adv-x="256" d="M200 192.024C200 192.28 199.984 192.536 199.96 192.792L199.912 193.144L199.848 193.56L199.744 193.96L199.656 194.32L199.52 194.704L199.392 195.064L199.232 195.408L199.0560000000001 195.768C199 195.88 198.9280000000001 195.984 198.864 196.088C198.8000000000001 196.208 198.728 196.328 198.648 196.44L198.408 196.776L198.184 197.072A8.096 8.096 0 0 1 197.712 197.592L197.656 197.656L197.584 197.72A8.16 8.16 0 0 1 197.072 198.184L196.776 198.408L196.44 198.648C196.328 198.728 196.208 198.792 196.096 198.864L195.776 199.056L195.416 199.224L195.056 199.392L194.72 199.512C194.584 199.56 194.456 199.616 194.32 199.656L193.992 199.736L193.56 199.848L193.192 199.904L192.784 199.96A8.16 8.16 0 0 1 192.176 200L192 200H88A8 8 0 1 1 88 184H172.688L58.344 69.656A8 8 0 0 1 69.656 58.344L184 172.688V88A8 8 0 1 1 200 88V192.024z" />
    <glyph glyph-name="ArrowsClockwise"
      unicode="&#xEA67;"
      horiz-adv-x="256" d="M225.728 148.44C225.864 148.464 225.992 148.504 226.128 148.536L226.4880000000001 148.632L226.8640000000001 148.76C226.9840000000001 148.8 227.1040000000001 148.84 227.2320000000001 148.896L227.5600000000001 149.056L227.944 149.232L228.24 149.408L228.608 149.632C228.72 149.704 228.816 149.784 228.912 149.856L229.24 150.096L229.656 150.472L229.824 150.632L229.984 150.8L230.352 151.208L230.608 151.552C230.672 151.648 230.752 151.736 230.816 151.84L231.056 152.224L231.216 152.512C231.296 152.64 231.352 152.768 231.408 152.904L231.56 153.224L231.696 153.6L231.824 153.96C231.864 154.088 231.888 154.216 231.92 154.352L232.008 154.72L232.088 155.176L232.128 155.496C232.152 155.76 232.168 156.024 232.168 156.296V204.28A8 8 0 0 1 216.168 204.28V175.592L195.88 195.872A96.112 96.112 0 0 1 60.12 195.872A8 8 0 0 1 71.432 184.56A80.08 80.08 0 0 0 184.568 184.56L204.856 164.28H176.16A8 8 0 1 1 176.16 148.28H224.16C224.424 148.28 224.688 148.288 224.952 148.32L225.296 148.368C225.44 148.384 225.584 148.4 225.72 148.432zM184.568 71.432A80.08 80.08 0 0 0 71.432 71.432L51.144 91.72H79.84A8 8 0 1 1 79.84 107.72H31.84L31.664 107.704C31.464 107.704 31.264 107.696 31.056 107.672C30.92 107.664 30.784 107.64 30.648 107.616L30.28 107.56C30.136 107.536 30 107.496 29.856 107.456L29.52 107.376L29.12 107.2319999999999L28.784 107.104L28.432 106.944L28.072 106.768L27.752 106.584C27.64 106.512 27.512 106.448 27.4 106.368C27.288 106.296 27.192 106.216 27.088 106.136L26.768 105.896C26.624 105.784 26.488 105.656 26.352 105.52L26.184 105.376L26.024 105.2L25.656 104.792L25.4 104.448C25.328 104.352 25.256 104.264 25.192 104.16L24.952 103.776L24.792 103.488C24.712 103.36 24.664 103.232 24.6 103.096L24.448 102.776L24.312 102.4L24.184 102.04C24.144 101.912 24.12 101.784 24.088 101.648L24 101.28L23.92 100.824L23.88 100.504A7.968 7.968 0 0 1 23.84 99.704V51.72A8 8 0 1 1 39.84 51.72V80.4L60.128 60.12A96.112 96.112 0 0 1 195.888 60.12A8 8 0 0 1 184.576 71.432z" />
    <glyph glyph-name="ArrowsCounterClockwise"
      unicode="&#xEA68;"
      horiz-adv-x="256" d="M30.272 148.44C30.136 148.464 30.008 148.504 29.872 148.536L29.512 148.632L29.136 148.76C29.016 148.8 28.896 148.84 28.768 148.896L28.44 149.056L28.056 149.232L27.76 149.408L27.384 149.632L27.088 149.856L26.76 150.096L26.344 150.472L26.176 150.632L26.016 150.8L25.648 151.208L25.392 151.552C25.32 151.648 25.248 151.736 25.184 151.84L24.944 152.224L24.784 152.512C24.704 152.64 24.656 152.768 24.592 152.904L24.44 153.224L24.304 153.6L24.176 153.96C24.136 154.088 24.112 154.216 24.08 154.352L23.992 154.72L23.912 155.176L23.872 155.496A7.968 7.968 0 0 0 23.832 156.296V204.28A8 8 0 1 0 39.832 204.28V175.592L60.12 195.872A96.112 96.112 0 0 0 195.88 195.872A7.991999999999999 7.991999999999999 0 0 0 190.224 182.216A8 8 0 0 0 184.568 184.56A80.08 80.08 0 0 1 71.432 184.56L51.144 164.28H79.84A8 8 0 1 0 79.84 148.28H31.84C31.576 148.28 31.312 148.288 31.048 148.32L30.704 148.368C30.56 148.384 30.416 148.4 30.28 148.432zM71.432 71.432A80.08 80.08 0 0 1 184.568 71.432L204.856 91.72H176.16A8 8 0 1 0 176.16 107.72H224.16L224.336 107.704C224.536 107.704 224.736 107.696 224.944 107.672C225.08 107.664 225.216 107.64 225.352 107.616L225.72 107.56C225.864 107.536 226 107.496 226.144 107.456L226.48 107.376L226.88 107.2319999999999L227.216 107.104L227.568 106.944L227.9280000000001 106.768L228.248 106.584C228.36 106.512 228.4880000000001 106.448 228.6 106.368C228.712 106.296 228.808 106.216 228.9120000000001 106.136L229.2320000000001 105.896C229.3760000000001 105.784 229.5120000000001 105.656 229.648 105.52L229.8160000000001 105.376L229.9760000000001 105.2L230.344 104.792L230.6 104.448C230.664 104.352 230.7440000000001 104.264 230.808 104.16L231.0480000000001 103.776L231.2080000000001 103.488C231.2880000000001 103.36 231.344 103.232 231.4000000000001 103.096L231.552 102.776L231.688 102.4L231.816 102.04C231.856 101.912 231.88 101.784 231.912 101.648L232 101.28L232.08 100.824L232.12 100.504C232.144 100.24 232.16 99.976 232.16 99.704V51.72A8 8 0 0 0 216.16 51.72V80.4L195.872 60.12A96.112 96.112 0 0 0 60.112 60.12A8.008 8.008 0 0 0 71.424 71.432z" />
    <glyph glyph-name="ArrowsDownUp"
      unicode="&#xEA69;"
      horiz-adv-x="256" d="M106.344 69.656L88 51.312V224A8 8 0 0 1 72 224V51.312L53.656 69.656A8 8 0 0 1 42.344 58.344L74.344 26.344L74.464 26.232A8 8 0 0 1 74.928 25.816L75.248 25.576C75.344 25.496 75.448 25.416 75.552 25.352L75.928 25.12L76.224 24.944L76.608 24.768L76.936 24.608L77.304 24.472L77.672 24.3440000000001L78.048 24.248L78.432 24.152L78.864 24.0880000000001L79.208 24.0400000000001A8.128 8.128 0 0 1 80.792 24.0400000000001L81.136 24.0880000000001L81.56 24.152L81.952 24.248L82.32 24.3440000000001L82.696 24.472L83.064 24.608L83.392 24.768L83.776 24.944L84.072 25.128L84.448 25.352L84.76 25.576L85.08 25.816C85.24 25.952 85.392 26.088 85.536 26.232L85.656 26.344L117.656 58.344A8 8 0 0 1 106.344 69.656zM213.656 197.656L181.656 229.656C181.624 229.696 181.584 229.72 181.544 229.752A8.224 8.224 0 0 1 181.072 230.184L180.752 230.424C180.656 230.504 180.552 230.584 180.44 230.648C180.328 230.728 180.2 230.808 180.08 230.872L179.776 231.056L179.4 231.232L179.064 231.392L178.696 231.52C178.576 231.568 178.456 231.616 178.32 231.656L177.952 231.752L177.56 231.848L177.136 231.912L176.792 231.96A8.048 8.048 0 0 1 175.208 231.96L174.864 231.912L174.44 231.848L174.04 231.752L173.68 231.656C173.552 231.616 173.424 231.576 173.304 231.52L172.936 231.392L172.5999999999999 231.232L172.2239999999999 231.056L171.9199999999999 230.872L171.5599999999999 230.648L171.2399999999999 230.424L170.9199999999999 230.184A7.984000000000001 7.984000000000001 0 0 1 170.4559999999999 229.752C170.416 229.72 170.3759999999999 229.696 170.3439999999999 229.656L138.3439999999999 197.656A7.991999999999999 7.991999999999999 0 0 1 144 184A8 8 0 0 1 149.656 186.344L168 204.688V32A8 8 0 0 1 184 32V204.688L202.344 186.344A8.008 8.008 0 0 1 213.656 197.656z" />
    <glyph glyph-name="ArrowsIn"
      unicode="&#xEA6A;"
      horiz-adv-x="256" d="M144.04 151.208C144.048 151.096 144.072 150.992 144.088 150.888L144.152 150.432L144.248 150.064C144.28 149.936 144.304 149.8 144.344 149.672L144.472 149.312C144.52 149.184 144.552 149.064 144.608 148.936L144.768 148.616L144.944 148.224L145.128 147.928L145.352 147.56L145.584 147.24L145.816 146.92C145.96 146.744 146.12 146.576 146.288 146.408L146.344 146.3440000000001L146.392 146.2960000000001C146.568 146.136 146.744 145.968 146.928 145.816C147.024 145.7360000000001 147.12 145.672 147.224 145.6C147.328 145.5120000000001 147.44 145.424 147.56 145.3440000000001C147.672 145.2640000000001 147.792 145.2000000000001 147.912 145.136L148.232 144.9440000000001L148.592 144.768L148.936 144.6080000000001L149.296 144.4800000000001L149.68 144.3440000000001L150.04 144.2560000000001C150.176 144.2160000000001 150.304 144.1760000000001 150.44 144.1520000000001L150.864 144.0880000000001L151.208 144.0400000000001A7.880000000000001 7.880000000000001 0 0 1 152 144H192A8 8 0 1 1 192 160H171.312L213.656 202.344A8 8 0 0 1 202.344 213.656L160 171.312V192A8 8 0 0 1 144 192V152C144 151.736 144.016 151.472 144.04 151.208zM111.96 104.792C111.952 104.904 111.928 105 111.912 105.112L111.848 105.568L111.752 105.936C111.72 106.072 111.696 106.2 111.656 106.328L111.528 106.688C111.48 106.816 111.448 106.936 111.392 107.064L111.232 107.384L111.056 107.776L110.88 108.072C110.8 108.2 110.736 108.32 110.648 108.44L110.416 108.76C110.336 108.864 110.272 108.976 110.184 109.08A8.024 8.024 0 0 1 109.712 109.592L109.656 109.656L109.608 109.704A7.888 7.888 0 0 1 109.072 110.1839999999999L108.784 110.4L108.44 110.656L108.096 110.864L107.776 111.056L107.416 111.224C107.296 111.28 107.176 111.344 107.056 111.384C106.944 111.44 106.832 111.48 106.712 111.52L106.32 111.656L105.976 111.7439999999999C105.8400000000001 111.776 105.704 111.824 105.5600000000001 111.848L105.16 111.904A7.816000000000001 7.816000000000001 0 0 1 104.08 112L104 112.008H64A8 8 0 0 1 64 96.008H84.688L42.344 53.664A8.008 8.008 0 0 1 53.656 42.352L96 84.688V64A8 8 0 0 1 112 64V104C112 104.264 111.984 104.528 111.96 104.792zM171.312 96H192A8 8 0 0 1 192 112H151.912A7.824 7.824 0 0 1 151.216 111.96L150.832 111.904L150.432 111.848L150.032 111.744L149.68 111.656L149.28 111.52L148.944 111.392C148.816 111.344 148.704 111.28 148.584 111.232L148.232 111.056L147.912 110.864L147.56 110.656L147.216 110.4L146.928 110.184A8.08 8.08 0 0 1 146.392 109.704L146.344 109.656L146.288 109.592C146.128 109.432 145.968 109.256 145.808 109.072C145.728 108.976 145.664 108.864 145.584 108.76L145.344 108.44C145.264 108.32 145.2 108.2 145.128 108.072L144.944 107.776L144.76 107.392L144.608 107.064L144.472 106.688L144.344 106.328C144.304 106.2 144.28 106.072 144.248 105.936L144.152 105.568L144.088 105.112C144.072 105 144.048 104.904 144.04 104.792A8.024 8.024 0 0 1 144 103.992V64A8 8 0 0 1 160 64V84.688L202.344 42.344A8 8 0 0 1 213.656 53.656L171.312 96zM112 192A8 8 0 0 1 96 192V171.312L53.656 213.656A8 8 0 0 1 42.344 202.344L84.688 160H64A8 8 0 0 1 64 144H104A7.880000000000001 7.880000000000001 0 0 1 104.792 144.04L105.136 144.088L105.56 144.152L105.96 144.248L106.32 144.344L106.704 144.48L107.064 144.608L107.408 144.768L107.768 144.944L108.088 145.136L108.44 145.344L108.784 145.6L109.072 145.816C109.256 145.968 109.432 146.136 109.608 146.296L109.656 146.344L109.712 146.408C109.872 146.568 110.032 146.744 110.192 146.928L110.416 147.24L110.656 147.56C110.736 147.672 110.8 147.8 110.872 147.928L111.056 148.224L111.24 148.608L111.392 148.936L111.528 149.312L111.656 149.672C111.696 149.8 111.72 149.936 111.752 150.064L111.848 150.432L111.912 150.888C111.928 150.992 111.952 151.096 111.96 151.208C111.984 151.472 112 151.736 112 152.008V192z" />
    <glyph glyph-name="ArrowsInCardinal"
      unicode="&#xEA6B;"
      horiz-adv-x="256" d="M133.656 101.656L133.496 101.808A8.08 8.08 0 0 1 133.072 102.184L132.752 102.424C132.648 102.504 132.552 102.584 132.44 102.648C132.328 102.728 132.2 102.8 132.08 102.872C131.976 102.936 131.88 103 131.768 103.056C131.656 103.12 131.528 103.168 131.408 103.224C131.296 103.28 131.176 103.344 131.064 103.384L130.72 103.52L130.32 103.656L129.984 103.736L129.56 103.848L129.192 103.904L128.784 103.96A8.096 8.096 0 0 1 128.176 103.992L128 104L127.824 103.992C127.624 103.992 127.424 103.976 127.216 103.96L126.808 103.904L126.44 103.848L126.016 103.7439999999999L125.68 103.656C125.544 103.616 125.416 103.56 125.28 103.5119999999999L124.944 103.3919999999999L124.592 103.2319999999999L124.232 103.056L123.912 102.872C123.8 102.792 123.672 102.728 123.552 102.648C123.448 102.584 123.352 102.504 123.248 102.424L122.928 102.184A8.432 8.432 0 0 1 122.512 101.808L122.344 101.656L94.056 73.376A8.008 8.008 0 0 1 105.376 62.056L120 76.688V24A8 8 0 0 1 136 24V76.688L150.624 62.056A8 8 0 0 1 161.944 73.376L133.656 101.656zM122.344 154.344L122.512 154.184L122.928 153.816L123.248 153.576C123.352 153.496 123.448 153.416 123.552 153.352L123.928 153.12L124.224 152.944L124.608 152.76L124.936 152.608L125.304 152.472L125.68 152.344L126.048 152.248L126.44 152.152L126.864 152.088C126.976 152.072 127.088 152.048 127.208 152.04A8.128 8.128 0 0 1 128.792 152.04L129.136 152.088L129.56 152.152L129.96 152.248L130.32 152.344L130.696 152.472L131.064 152.608L131.392 152.768L131.776 152.944L132.072 153.12L132.448 153.352C132.552 153.416 132.648 153.496 132.744 153.568L133.072 153.816C133.216 153.936 133.352 154.056 133.488 154.192L133.656 154.344L161.944 182.624A8 8 0 0 1 150.624 193.944L136 179.312V232A8 8 0 0 1 120 232V179.312L105.376 193.944A8 8 0 1 1 94.056 182.624L122.344 154.344zM101.816 122.52L102.184 122.92C102.272 123.04 102.352 123.16 102.44 123.264L102.648 123.552L102.888 123.944L103.048 124.224C103.128 124.352 103.184 124.488 103.24 124.624L103.392 124.936L103.528 125.32L103.656 125.672C103.696 125.8 103.72 125.936 103.752 126.072L103.848 126.4320000000001L103.912 126.888L103.96 127.208A8.056 8.056 0 0 1 103.96 128.792C103.952 128.904 103.928 129.0080000000001 103.912 129.112L103.848 129.5680000000001L103.752 129.936C103.72 130.064 103.696 130.2 103.656 130.328L103.528 130.68C103.488 130.808 103.448 130.936 103.392 131.064L103.24 131.384L103.056 131.776L102.888 132.056L102.648 132.448L102.44 132.736C102.36 132.848 102.28 132.968 102.184 133.072C102.064 133.216 101.944 133.352 101.816 133.48L101.656 133.656L73.376 161.944A8 8 0 1 1 62.056 150.624L76.688 136H24A8 8 0 0 1 24 120H76.688L62.056 105.376A8 8 0 0 1 73.376 94.056L101.656 122.344L101.816 122.52zM232 136H179.312L193.944 150.624A8 8 0 0 1 182.624 161.944L154.344 133.656L154.184 133.48A8.408 8.408 0 0 1 153.816 133.08L153.56 132.736L153.352 132.448L153.112 132.056L152.952 131.776C152.872 131.648 152.816 131.512 152.76 131.376L152.608 131.064L152.472 130.68L152.3440000000001 130.328C152.3040000000001 130.2 152.2800000000001 130.064 152.2480000000001 129.928L152.1520000000001 129.568L152.0880000000001 129.112L152.0400000000001 128.792A8.064 8.064 0 0 1 152.0400000000001 127.208L152.0880000000001 126.888L152.1520000000001 126.432L152.2480000000001 126.064C152.2800000000001 125.936 152.3040000000001 125.8 152.3440000000001 125.672L152.472 125.32C152.512 125.192 152.5520000000001 125.064 152.608 124.936L152.76 124.6160000000001C152.816 124.4880000000001 152.88 124.352 152.952 124.2240000000001L153.112 123.9440000000001L153.352 123.5520000000001L153.56 123.2640000000001C153.6400000000001 123.1520000000001 153.72 123.0320000000001 153.816 122.928C153.936 122.784 154.0560000000001 122.648 154.184 122.5200000000001L154.344 122.3440000000001L182.624 94.056A8 8 0 0 1 193.944 105.376L179.312 120H232A8 8 0 1 1 232 136z" />
    <glyph glyph-name="ArrowsInLineHorizontal"
      unicode="&#xEA6C;"
      horiz-adv-x="256" d="M136 216V40A8 8 0 0 0 120 40V216A8 8 0 0 0 136 216zM102.44 123.264L102.648 123.552L102.888 123.944L103.048 124.224C103.128 124.352 103.184 124.488 103.24 124.624L103.392 124.936L103.528 125.32L103.656 125.672C103.696 125.8 103.72 125.936 103.752 126.072L103.848 126.4320000000001L103.912 126.888L103.96 127.208A8.064 8.064 0 0 1 103.96 128.792L103.912 129.112L103.848 129.5680000000001L103.752 129.936C103.72 130.064 103.696 130.2 103.656 130.328L103.528 130.68C103.488 130.808 103.448 130.936 103.392 131.064L103.24 131.384L103.056 131.776L102.888 132.056L102.648 132.448L102.44 132.736C102.36 132.848 102.28 132.968 102.184 133.072C102.064 133.216 101.944 133.352 101.816 133.48L101.656 133.656L69.656 165.656A8 8 0 1 1 58.344 154.344L76.688 136H16A8 8 0 0 1 16 120H76.688L58.344 101.656A8.008 8.008 0 0 1 69.656 90.344L101.656 122.344L101.816 122.52L102.184 122.92L102.44 123.264zM240 136H179.312L197.656 154.344A8 8 0 0 1 186.344 165.656L154.344 133.656L154.184 133.48L153.816 133.08L153.56 132.736L153.352 132.448L153.112 132.056L152.952 131.776C152.872 131.648 152.816 131.512 152.76 131.376L152.608 131.064L152.472 130.68L152.344 130.328C152.304 130.2 152.28 130.064 152.248 129.928L152.152 129.568L152.088 129.112L152.04 128.792A8.064 8.064 0 0 1 152.04 127.208L152.088 126.888L152.152 126.432L152.248 126.064C152.28 125.936 152.304 125.8 152.344 125.672L152.472 125.32C152.512 125.192 152.552 125.064 152.608 124.936L152.76 124.6160000000001C152.816 124.4880000000001 152.88 124.352 152.952 124.2240000000001L153.112 123.9440000000001L153.352 123.5520000000001L153.56 123.2640000000001C153.64 123.1520000000001 153.72 123.0320000000001 153.816 122.928C153.936 122.784 154.056 122.648 154.184 122.5200000000001L154.344 122.3440000000001L186.344 90.3440000000001A7.984000000000001 7.984000000000001 0 0 1 199.384 92.9360000000001A8 8 0 0 1 197.656 101.6560000000001L179.312 120H240A8 8 0 0 1 240 136z" />
    <glyph glyph-name="ArrowsInLineVertical"
      unicode="&#xEA6D;"
      horiz-adv-x="256" d="M224 128A8 8 0 0 0 216 120H40A8 8 0 0 0 40 136H216A8 8 0 0 0 224 128zM122.344 154.344L122.512 154.184L122.928 153.816L123.248 153.576C123.352 153.496 123.448 153.416 123.552 153.352L123.928 153.12L124.224 152.944L124.608 152.76L124.936 152.608L125.304 152.472L125.68 152.344L126.048 152.248L126.44 152.152L126.864 152.088C126.976 152.072 127.088 152.048 127.208 152.04A8.128 8.128 0 0 1 128.792 152.04L129.136 152.088L129.56 152.152L129.96 152.248L130.32 152.344C130.448 152.384 130.576 152.424 130.696 152.48L131.064 152.608L131.392 152.768L131.776 152.944L132.072 153.12L132.448 153.352C132.552 153.416 132.648 153.496 132.744 153.568L133.072 153.816C133.216 153.936 133.352 154.056 133.488 154.192L133.656 154.344L165.656 186.344A8 8 0 1 1 154.344 197.656L136 179.312V240A8 8 0 0 1 120 240V179.312L101.656 197.656A8 8 0 0 1 90.344 186.344L122.344 154.344zM133.656 101.656L133.496 101.808A8.432 8.432 0 0 1 133.072 102.184L132.752 102.424C132.648 102.504 132.552 102.584 132.44 102.648C132.328 102.728 132.2 102.8 132.08 102.872C131.976 102.936 131.88 103 131.768 103.056C131.656 103.12 131.528 103.168 131.408 103.224C131.296 103.28 131.176 103.344 131.056 103.384C130.944 103.44 130.832 103.472 130.72 103.52L130.3199999999999 103.656L129.9839999999999 103.736L129.5599999999999 103.848L129.1919999999999 103.904L128.7839999999999 103.96A8.544 8.544 0 0 1 128.1759999999999 103.992L128 104L127.824 103.992C127.624 103.992 127.424 103.976 127.216 103.96L126.808 103.904L126.44 103.848L126.016 103.7439999999999L125.68 103.656C125.544 103.616 125.416 103.56 125.28 103.5119999999999L124.944 103.3919999999999L124.592 103.2319999999999L124.232 103.056L123.912 102.872C123.8 102.792 123.672 102.728 123.552 102.648C123.448 102.584 123.352 102.504 123.248 102.424L122.928 102.184A8.432 8.432 0 0 1 122.512 101.808L122.344 101.656L90.344 69.656A8 8 0 0 1 101.656 58.344L120 76.688V16A8 8 0 0 1 136 16V76.688L154.344 58.344A8 8 0 0 1 165.656 69.656L133.656 101.656z" />
    <glyph glyph-name="ArrowsInSimple"
      unicode="&#xEA6E;"
      horiz-adv-x="256" d="M213.656 213.656A8 8 0 0 1 202.344 213.656L160 171.312V200A8 8 0 0 1 144 200V152C144 151.736 144.016 151.472 144.04 151.2L144.088 150.888L144.152 150.432L144.248 150.064C144.28 149.936 144.304 149.8 144.344 149.672L144.472 149.32C144.512 149.192 144.552 149.064 144.608 148.936L144.76 148.616C144.816 148.488 144.88 148.352 144.952 148.224L145.112 147.944L145.352 147.552L145.56 147.264C145.64 147.1520000000001 145.72 147.0320000000001 145.816 146.928C145.936 146.784 146.056 146.648 146.184 146.5200000000001L146.344 146.344L146.512 146.184L146.928 145.816L147.248 145.576C147.352 145.4960000000001 147.448 145.4160000000001 147.552 145.352L147.928 145.12L148.224 144.944L148.608 144.7600000000001L148.936 144.608L149.304 144.472L149.68 144.3440000000001L150.048 144.2480000000001L150.44 144.1520000000001L150.864 144.088L151.208 144.04C151.472 144.016 151.7359999999999 144 152 144H200A8 8 0 0 1 200 160H171.312L213.656 202.344A8 8 0 0 1 213.656 213.656zM111.96 104.792L111.912 105.112L111.848 105.568L111.752 105.936C111.72 106.064 111.696 106.2 111.656 106.328L111.528 106.68C111.488 106.808 111.448 106.936 111.392 107.064L111.24 107.384L111.056 107.776L110.888 108.056L110.648 108.448L110.44 108.736C110.36 108.848 110.28 108.968 110.184 109.072A8.008 8.008 0 0 1 109.816 109.48L109.656 109.656L109.496 109.8079999999999A8.08 8.08 0 0 1 109.072 110.1839999999999L108.752 110.424C108.648 110.504 108.552 110.584 108.448 110.6479999999999L108.08 110.8719999999999C107.976 110.9359999999999 107.88 110.9999999999999 107.768 111.0559999999999C107.656 111.1199999999999 107.528 111.1679999999999 107.408 111.2239999999999C107.296 111.28 107.176 111.3439999999999 107.064 111.3839999999999L106.72 111.5199999999999L106.32 111.6559999999999L105.984 111.7359999999999L105.56 111.8479999999999L105.192 111.9039999999999L104.784 111.96A8.544 8.544 0 0 1 104.176 111.992L104 112H56A8 8 0 0 1 56 96H84.688L42.344 53.656A8.008 8.008 0 0 1 53.656 42.344L96 84.688V56A8 8 0 0 1 112 56V104C112 104.264 111.984 104.528 111.96 104.792z" />
    </font>
</defs>
</svg>
